G75*
G70*
%OFA0B0*%
%FSLAX24Y24*%
%IPPOS*%
%LPD*%
%AMOC8*
5,1,8,0,0,1.08239X$1,22.5*
%
%ADD10C,0.0008*%
%ADD11C,0.0000*%
%ADD12R,0.0433X0.0394*%
%ADD13R,0.0394X0.0098*%
%ADD14R,0.0394X0.0433*%
%ADD15R,0.1063X0.0630*%
%ADD16R,0.0945X0.0945*%
%ADD17R,0.0748X0.1339*%
%ADD18R,0.0728X0.0433*%
%ADD19R,0.0748X0.0787*%
%ADD20R,0.0315X0.0315*%
%ADD21R,0.0984X0.1693*%
%ADD22R,0.0354X0.0315*%
%ADD23R,0.0315X0.0354*%
%ADD24R,0.0197X0.0630*%
%ADD25R,0.0551X0.1142*%
%ADD26R,0.0827X0.0866*%
%ADD27R,0.0827X0.0945*%
%ADD28R,0.1024X0.1142*%
%ADD29R,0.0512X0.0748*%
%ADD30R,0.0551X0.0768*%
%ADD31R,0.0472X0.1693*%
%ADD32R,0.0472X0.0787*%
%ADD33C,0.0040*%
%ADD34R,0.1000X0.0500*%
%ADD35R,0.0984X0.1004*%
%ADD36R,0.1004X0.0984*%
%ADD37R,0.1181X0.1181*%
%ADD38R,0.0528X0.0394*%
D10*
X000180Y000805D02*
X000180Y040805D01*
X029550Y040805D01*
X045180Y040805D01*
X045180Y040305D01*
X045172Y040675D02*
X045172Y000805D01*
X031912Y000805D01*
X031834Y000805D01*
X031519Y000805D01*
X024566Y000805D01*
X024566Y011305D01*
X016803Y011305D01*
X016803Y000805D01*
X009786Y000805D01*
X009708Y000805D01*
X008546Y000805D01*
X008546Y005305D01*
X003269Y005305D01*
X003269Y000805D01*
X000180Y000805D01*
X000180Y040805D02*
X000180Y040833D01*
D11*
X000962Y039305D02*
X000964Y039355D01*
X000970Y039405D01*
X000980Y039454D01*
X000994Y039502D01*
X001011Y039549D01*
X001032Y039594D01*
X001057Y039638D01*
X001085Y039679D01*
X001117Y039718D01*
X001151Y039755D01*
X001188Y039789D01*
X001228Y039819D01*
X001270Y039846D01*
X001314Y039870D01*
X001360Y039891D01*
X001407Y039907D01*
X001455Y039920D01*
X001505Y039929D01*
X001554Y039934D01*
X001605Y039935D01*
X001655Y039932D01*
X001704Y039925D01*
X001753Y039914D01*
X001801Y039899D01*
X001847Y039881D01*
X001892Y039859D01*
X001935Y039833D01*
X001976Y039804D01*
X002015Y039772D01*
X002051Y039737D01*
X002083Y039699D01*
X002113Y039659D01*
X002140Y039616D01*
X002163Y039572D01*
X002182Y039526D01*
X002198Y039478D01*
X002210Y039429D01*
X002218Y039380D01*
X002222Y039330D01*
X002222Y039280D01*
X002218Y039230D01*
X002210Y039181D01*
X002198Y039132D01*
X002182Y039084D01*
X002163Y039038D01*
X002140Y038994D01*
X002113Y038951D01*
X002083Y038911D01*
X002051Y038873D01*
X002015Y038838D01*
X001976Y038806D01*
X001935Y038777D01*
X001892Y038751D01*
X001847Y038729D01*
X001801Y038711D01*
X001753Y038696D01*
X001704Y038685D01*
X001655Y038678D01*
X001605Y038675D01*
X001554Y038676D01*
X001505Y038681D01*
X001455Y038690D01*
X001407Y038703D01*
X001360Y038719D01*
X001314Y038740D01*
X001270Y038764D01*
X001228Y038791D01*
X001188Y038821D01*
X001151Y038855D01*
X001117Y038892D01*
X001085Y038931D01*
X001057Y038972D01*
X001032Y039016D01*
X001011Y039061D01*
X000994Y039108D01*
X000980Y039156D01*
X000970Y039205D01*
X000964Y039255D01*
X000962Y039305D01*
X000602Y036410D02*
X000604Y036460D01*
X000610Y036510D01*
X000620Y036559D01*
X000634Y036607D01*
X000651Y036654D01*
X000672Y036699D01*
X000697Y036743D01*
X000725Y036784D01*
X000757Y036823D01*
X000791Y036860D01*
X000828Y036894D01*
X000868Y036924D01*
X000910Y036951D01*
X000954Y036975D01*
X001000Y036996D01*
X001047Y037012D01*
X001095Y037025D01*
X001145Y037034D01*
X001194Y037039D01*
X001245Y037040D01*
X001295Y037037D01*
X001344Y037030D01*
X001393Y037019D01*
X001441Y037004D01*
X001487Y036986D01*
X001532Y036964D01*
X001575Y036938D01*
X001616Y036909D01*
X001655Y036877D01*
X001691Y036842D01*
X001723Y036804D01*
X001753Y036764D01*
X001780Y036721D01*
X001803Y036677D01*
X001822Y036631D01*
X001838Y036583D01*
X001850Y036534D01*
X001858Y036485D01*
X001862Y036435D01*
X001862Y036385D01*
X001858Y036335D01*
X001850Y036286D01*
X001838Y036237D01*
X001822Y036189D01*
X001803Y036143D01*
X001780Y036099D01*
X001753Y036056D01*
X001723Y036016D01*
X001691Y035978D01*
X001655Y035943D01*
X001616Y035911D01*
X001575Y035882D01*
X001532Y035856D01*
X001487Y035834D01*
X001441Y035816D01*
X001393Y035801D01*
X001344Y035790D01*
X001295Y035783D01*
X001245Y035780D01*
X001194Y035781D01*
X001145Y035786D01*
X001095Y035795D01*
X001047Y035808D01*
X001000Y035824D01*
X000954Y035845D01*
X000910Y035869D01*
X000868Y035896D01*
X000828Y035926D01*
X000791Y035960D01*
X000757Y035997D01*
X000725Y036036D01*
X000697Y036077D01*
X000672Y036121D01*
X000651Y036166D01*
X000634Y036213D01*
X000620Y036261D01*
X000610Y036310D01*
X000604Y036360D01*
X000602Y036410D01*
X000515Y026498D02*
X000517Y026548D01*
X000523Y026598D01*
X000533Y026647D01*
X000547Y026695D01*
X000564Y026742D01*
X000585Y026787D01*
X000610Y026831D01*
X000638Y026872D01*
X000670Y026911D01*
X000704Y026948D01*
X000741Y026982D01*
X000781Y027012D01*
X000823Y027039D01*
X000867Y027063D01*
X000913Y027084D01*
X000960Y027100D01*
X001008Y027113D01*
X001058Y027122D01*
X001107Y027127D01*
X001158Y027128D01*
X001208Y027125D01*
X001257Y027118D01*
X001306Y027107D01*
X001354Y027092D01*
X001400Y027074D01*
X001445Y027052D01*
X001488Y027026D01*
X001529Y026997D01*
X001568Y026965D01*
X001604Y026930D01*
X001636Y026892D01*
X001666Y026852D01*
X001693Y026809D01*
X001716Y026765D01*
X001735Y026719D01*
X001751Y026671D01*
X001763Y026622D01*
X001771Y026573D01*
X001775Y026523D01*
X001775Y026473D01*
X001771Y026423D01*
X001763Y026374D01*
X001751Y026325D01*
X001735Y026277D01*
X001716Y026231D01*
X001693Y026187D01*
X001666Y026144D01*
X001636Y026104D01*
X001604Y026066D01*
X001568Y026031D01*
X001529Y025999D01*
X001488Y025970D01*
X001445Y025944D01*
X001400Y025922D01*
X001354Y025904D01*
X001306Y025889D01*
X001257Y025878D01*
X001208Y025871D01*
X001158Y025868D01*
X001107Y025869D01*
X001058Y025874D01*
X001008Y025883D01*
X000960Y025896D01*
X000913Y025912D01*
X000867Y025933D01*
X000823Y025957D01*
X000781Y025984D01*
X000741Y026014D01*
X000704Y026048D01*
X000670Y026085D01*
X000638Y026124D01*
X000610Y026165D01*
X000585Y026209D01*
X000564Y026254D01*
X000547Y026301D01*
X000533Y026349D01*
X000523Y026398D01*
X000517Y026448D01*
X000515Y026498D01*
X014901Y029305D02*
X014903Y029355D01*
X014909Y029405D01*
X014919Y029454D01*
X014933Y029502D01*
X014950Y029549D01*
X014971Y029594D01*
X014996Y029638D01*
X015024Y029679D01*
X015056Y029718D01*
X015090Y029755D01*
X015127Y029789D01*
X015167Y029819D01*
X015209Y029846D01*
X015253Y029870D01*
X015299Y029891D01*
X015346Y029907D01*
X015394Y029920D01*
X015444Y029929D01*
X015493Y029934D01*
X015544Y029935D01*
X015594Y029932D01*
X015643Y029925D01*
X015692Y029914D01*
X015740Y029899D01*
X015786Y029881D01*
X015831Y029859D01*
X015874Y029833D01*
X015915Y029804D01*
X015954Y029772D01*
X015990Y029737D01*
X016022Y029699D01*
X016052Y029659D01*
X016079Y029616D01*
X016102Y029572D01*
X016121Y029526D01*
X016137Y029478D01*
X016149Y029429D01*
X016157Y029380D01*
X016161Y029330D01*
X016161Y029280D01*
X016157Y029230D01*
X016149Y029181D01*
X016137Y029132D01*
X016121Y029084D01*
X016102Y029038D01*
X016079Y028994D01*
X016052Y028951D01*
X016022Y028911D01*
X015990Y028873D01*
X015954Y028838D01*
X015915Y028806D01*
X015874Y028777D01*
X015831Y028751D01*
X015786Y028729D01*
X015740Y028711D01*
X015692Y028696D01*
X015643Y028685D01*
X015594Y028678D01*
X015544Y028675D01*
X015493Y028676D01*
X015444Y028681D01*
X015394Y028690D01*
X015346Y028703D01*
X015299Y028719D01*
X015253Y028740D01*
X015209Y028764D01*
X015167Y028791D01*
X015127Y028821D01*
X015090Y028855D01*
X015056Y028892D01*
X015024Y028931D01*
X014996Y028972D01*
X014971Y029016D01*
X014950Y029061D01*
X014933Y029108D01*
X014919Y029156D01*
X014909Y029205D01*
X014903Y029255D01*
X014901Y029305D01*
X031518Y037104D02*
X031520Y037137D01*
X031526Y037169D01*
X031535Y037200D01*
X031548Y037230D01*
X031565Y037258D01*
X031585Y037284D01*
X031608Y037308D01*
X031633Y037328D01*
X031661Y037346D01*
X031690Y037360D01*
X031721Y037370D01*
X031753Y037377D01*
X031786Y037380D01*
X031819Y037379D01*
X031851Y037374D01*
X031882Y037365D01*
X031913Y037353D01*
X031941Y037337D01*
X031968Y037318D01*
X031992Y037296D01*
X032013Y037271D01*
X032032Y037244D01*
X032047Y037215D01*
X032058Y037185D01*
X032066Y037153D01*
X032070Y037120D01*
X032070Y037088D01*
X032066Y037055D01*
X032058Y037023D01*
X032047Y036993D01*
X032032Y036964D01*
X032013Y036937D01*
X031992Y036912D01*
X031968Y036890D01*
X031941Y036871D01*
X031913Y036855D01*
X031882Y036843D01*
X031851Y036834D01*
X031819Y036829D01*
X031786Y036828D01*
X031753Y036831D01*
X031721Y036838D01*
X031690Y036848D01*
X031661Y036862D01*
X031633Y036880D01*
X031608Y036900D01*
X031585Y036924D01*
X031565Y036950D01*
X031548Y036978D01*
X031535Y037008D01*
X031526Y037039D01*
X031520Y037071D01*
X031518Y037104D01*
X040967Y037104D02*
X040969Y037137D01*
X040975Y037169D01*
X040984Y037200D01*
X040997Y037230D01*
X041014Y037258D01*
X041034Y037284D01*
X041057Y037308D01*
X041082Y037328D01*
X041110Y037346D01*
X041139Y037360D01*
X041170Y037370D01*
X041202Y037377D01*
X041235Y037380D01*
X041268Y037379D01*
X041300Y037374D01*
X041331Y037365D01*
X041362Y037353D01*
X041390Y037337D01*
X041417Y037318D01*
X041441Y037296D01*
X041462Y037271D01*
X041481Y037244D01*
X041496Y037215D01*
X041507Y037185D01*
X041515Y037153D01*
X041519Y037120D01*
X041519Y037088D01*
X041515Y037055D01*
X041507Y037023D01*
X041496Y036993D01*
X041481Y036964D01*
X041462Y036937D01*
X041441Y036912D01*
X041417Y036890D01*
X041390Y036871D01*
X041362Y036855D01*
X041331Y036843D01*
X041300Y036834D01*
X041268Y036829D01*
X041235Y036828D01*
X041202Y036831D01*
X041170Y036838D01*
X041139Y036848D01*
X041110Y036862D01*
X041082Y036880D01*
X041057Y036900D01*
X041034Y036924D01*
X041014Y036950D01*
X040997Y036978D01*
X040984Y037008D01*
X040975Y037039D01*
X040969Y037071D01*
X040967Y037104D01*
X043050Y039393D02*
X043052Y039443D01*
X043058Y039493D01*
X043068Y039542D01*
X043082Y039590D01*
X043099Y039637D01*
X043120Y039682D01*
X043145Y039726D01*
X043173Y039767D01*
X043205Y039806D01*
X043239Y039843D01*
X043276Y039877D01*
X043316Y039907D01*
X043358Y039934D01*
X043402Y039958D01*
X043448Y039979D01*
X043495Y039995D01*
X043543Y040008D01*
X043593Y040017D01*
X043642Y040022D01*
X043693Y040023D01*
X043743Y040020D01*
X043792Y040013D01*
X043841Y040002D01*
X043889Y039987D01*
X043935Y039969D01*
X043980Y039947D01*
X044023Y039921D01*
X044064Y039892D01*
X044103Y039860D01*
X044139Y039825D01*
X044171Y039787D01*
X044201Y039747D01*
X044228Y039704D01*
X044251Y039660D01*
X044270Y039614D01*
X044286Y039566D01*
X044298Y039517D01*
X044306Y039468D01*
X044310Y039418D01*
X044310Y039368D01*
X044306Y039318D01*
X044298Y039269D01*
X044286Y039220D01*
X044270Y039172D01*
X044251Y039126D01*
X044228Y039082D01*
X044201Y039039D01*
X044171Y038999D01*
X044139Y038961D01*
X044103Y038926D01*
X044064Y038894D01*
X044023Y038865D01*
X043980Y038839D01*
X043935Y038817D01*
X043889Y038799D01*
X043841Y038784D01*
X043792Y038773D01*
X043743Y038766D01*
X043693Y038763D01*
X043642Y038764D01*
X043593Y038769D01*
X043543Y038778D01*
X043495Y038791D01*
X043448Y038807D01*
X043402Y038828D01*
X043358Y038852D01*
X043316Y038879D01*
X043276Y038909D01*
X043239Y038943D01*
X043205Y038980D01*
X043173Y039019D01*
X043145Y039060D01*
X043120Y039104D01*
X043099Y039149D01*
X043082Y039196D01*
X043068Y039244D01*
X043058Y039293D01*
X043052Y039343D01*
X043050Y039393D01*
X043050Y029305D02*
X043052Y029355D01*
X043058Y029405D01*
X043068Y029454D01*
X043082Y029502D01*
X043099Y029549D01*
X043120Y029594D01*
X043145Y029638D01*
X043173Y029679D01*
X043205Y029718D01*
X043239Y029755D01*
X043276Y029789D01*
X043316Y029819D01*
X043358Y029846D01*
X043402Y029870D01*
X043448Y029891D01*
X043495Y029907D01*
X043543Y029920D01*
X043593Y029929D01*
X043642Y029934D01*
X043693Y029935D01*
X043743Y029932D01*
X043792Y029925D01*
X043841Y029914D01*
X043889Y029899D01*
X043935Y029881D01*
X043980Y029859D01*
X044023Y029833D01*
X044064Y029804D01*
X044103Y029772D01*
X044139Y029737D01*
X044171Y029699D01*
X044201Y029659D01*
X044228Y029616D01*
X044251Y029572D01*
X044270Y029526D01*
X044286Y029478D01*
X044298Y029429D01*
X044306Y029380D01*
X044310Y029330D01*
X044310Y029280D01*
X044306Y029230D01*
X044298Y029181D01*
X044286Y029132D01*
X044270Y029084D01*
X044251Y029038D01*
X044228Y028994D01*
X044201Y028951D01*
X044171Y028911D01*
X044139Y028873D01*
X044103Y028838D01*
X044064Y028806D01*
X044023Y028777D01*
X043980Y028751D01*
X043935Y028729D01*
X043889Y028711D01*
X043841Y028696D01*
X043792Y028685D01*
X043743Y028678D01*
X043693Y028675D01*
X043642Y028676D01*
X043593Y028681D01*
X043543Y028690D01*
X043495Y028703D01*
X043448Y028719D01*
X043402Y028740D01*
X043358Y028764D01*
X043316Y028791D01*
X043276Y028821D01*
X043239Y028855D01*
X043205Y028892D01*
X043173Y028931D01*
X043145Y028972D01*
X043120Y029016D01*
X043099Y029061D01*
X043082Y029108D01*
X043068Y029156D01*
X043058Y029205D01*
X043052Y029255D01*
X043050Y029305D01*
X041977Y004654D02*
X041979Y004678D01*
X041985Y004701D01*
X041994Y004723D01*
X042007Y004743D01*
X042022Y004761D01*
X042041Y004776D01*
X042062Y004788D01*
X042084Y004796D01*
X042107Y004801D01*
X042131Y004802D01*
X042155Y004799D01*
X042177Y004792D01*
X042199Y004782D01*
X042219Y004769D01*
X042236Y004752D01*
X042250Y004733D01*
X042261Y004712D01*
X042269Y004689D01*
X042273Y004666D01*
X042273Y004642D01*
X042269Y004619D01*
X042261Y004596D01*
X042250Y004575D01*
X042236Y004556D01*
X042219Y004539D01*
X042199Y004526D01*
X042177Y004516D01*
X042155Y004509D01*
X042131Y004506D01*
X042107Y004507D01*
X042084Y004512D01*
X042062Y004520D01*
X042041Y004532D01*
X042022Y004547D01*
X042007Y004565D01*
X041994Y004585D01*
X041985Y004607D01*
X041979Y004630D01*
X041977Y004654D01*
X040858Y003602D02*
X040860Y003630D01*
X040866Y003658D01*
X040875Y003684D01*
X040888Y003710D01*
X040904Y003733D01*
X040924Y003753D01*
X040946Y003771D01*
X040970Y003786D01*
X040996Y003797D01*
X041023Y003805D01*
X041051Y003809D01*
X041079Y003809D01*
X041107Y003805D01*
X041134Y003797D01*
X041160Y003786D01*
X041184Y003771D01*
X041206Y003753D01*
X041226Y003733D01*
X041242Y003710D01*
X041255Y003684D01*
X041264Y003658D01*
X041270Y003630D01*
X041272Y003602D01*
X041270Y003574D01*
X041264Y003546D01*
X041255Y003520D01*
X041242Y003494D01*
X041226Y003471D01*
X041206Y003451D01*
X041184Y003433D01*
X041160Y003418D01*
X041134Y003407D01*
X041107Y003399D01*
X041079Y003395D01*
X041051Y003395D01*
X041023Y003399D01*
X040996Y003407D01*
X040970Y003418D01*
X040946Y003433D01*
X040924Y003451D01*
X040904Y003471D01*
X040888Y003494D01*
X040875Y003520D01*
X040866Y003546D01*
X040860Y003574D01*
X040858Y003602D01*
X043050Y002217D02*
X043052Y002267D01*
X043058Y002317D01*
X043068Y002366D01*
X043082Y002414D01*
X043099Y002461D01*
X043120Y002506D01*
X043145Y002550D01*
X043173Y002591D01*
X043205Y002630D01*
X043239Y002667D01*
X043276Y002701D01*
X043316Y002731D01*
X043358Y002758D01*
X043402Y002782D01*
X043448Y002803D01*
X043495Y002819D01*
X043543Y002832D01*
X043593Y002841D01*
X043642Y002846D01*
X043693Y002847D01*
X043743Y002844D01*
X043792Y002837D01*
X043841Y002826D01*
X043889Y002811D01*
X043935Y002793D01*
X043980Y002771D01*
X044023Y002745D01*
X044064Y002716D01*
X044103Y002684D01*
X044139Y002649D01*
X044171Y002611D01*
X044201Y002571D01*
X044228Y002528D01*
X044251Y002484D01*
X044270Y002438D01*
X044286Y002390D01*
X044298Y002341D01*
X044306Y002292D01*
X044310Y002242D01*
X044310Y002192D01*
X044306Y002142D01*
X044298Y002093D01*
X044286Y002044D01*
X044270Y001996D01*
X044251Y001950D01*
X044228Y001906D01*
X044201Y001863D01*
X044171Y001823D01*
X044139Y001785D01*
X044103Y001750D01*
X044064Y001718D01*
X044023Y001689D01*
X043980Y001663D01*
X043935Y001641D01*
X043889Y001623D01*
X043841Y001608D01*
X043792Y001597D01*
X043743Y001590D01*
X043693Y001587D01*
X043642Y001588D01*
X043593Y001593D01*
X043543Y001602D01*
X043495Y001615D01*
X043448Y001631D01*
X043402Y001652D01*
X043358Y001676D01*
X043316Y001703D01*
X043276Y001733D01*
X043239Y001767D01*
X043205Y001804D01*
X043173Y001843D01*
X043145Y001884D01*
X043120Y001928D01*
X043099Y001973D01*
X043082Y002020D01*
X043068Y002068D01*
X043058Y002117D01*
X043052Y002167D01*
X043050Y002217D01*
X001050Y002305D02*
X001052Y002355D01*
X001058Y002405D01*
X001068Y002454D01*
X001082Y002502D01*
X001099Y002549D01*
X001120Y002594D01*
X001145Y002638D01*
X001173Y002679D01*
X001205Y002718D01*
X001239Y002755D01*
X001276Y002789D01*
X001316Y002819D01*
X001358Y002846D01*
X001402Y002870D01*
X001448Y002891D01*
X001495Y002907D01*
X001543Y002920D01*
X001593Y002929D01*
X001642Y002934D01*
X001693Y002935D01*
X001743Y002932D01*
X001792Y002925D01*
X001841Y002914D01*
X001889Y002899D01*
X001935Y002881D01*
X001980Y002859D01*
X002023Y002833D01*
X002064Y002804D01*
X002103Y002772D01*
X002139Y002737D01*
X002171Y002699D01*
X002201Y002659D01*
X002228Y002616D01*
X002251Y002572D01*
X002270Y002526D01*
X002286Y002478D01*
X002298Y002429D01*
X002306Y002380D01*
X002310Y002330D01*
X002310Y002280D01*
X002306Y002230D01*
X002298Y002181D01*
X002286Y002132D01*
X002270Y002084D01*
X002251Y002038D01*
X002228Y001994D01*
X002201Y001951D01*
X002171Y001911D01*
X002139Y001873D01*
X002103Y001838D01*
X002064Y001806D01*
X002023Y001777D01*
X001980Y001751D01*
X001935Y001729D01*
X001889Y001711D01*
X001841Y001696D01*
X001792Y001685D01*
X001743Y001678D01*
X001693Y001675D01*
X001642Y001676D01*
X001593Y001681D01*
X001543Y001690D01*
X001495Y001703D01*
X001448Y001719D01*
X001402Y001740D01*
X001358Y001764D01*
X001316Y001791D01*
X001276Y001821D01*
X001239Y001855D01*
X001205Y001892D01*
X001173Y001931D01*
X001145Y001972D01*
X001120Y002016D01*
X001099Y002061D01*
X001082Y002108D01*
X001068Y002156D01*
X001058Y002205D01*
X001052Y002255D01*
X001050Y002305D01*
D12*
X012767Y005110D03*
X013437Y005110D03*
X013449Y005908D03*
X012779Y005908D03*
X027949Y005896D03*
X028619Y005896D03*
X028616Y005080D03*
X027947Y005080D03*
X019646Y021948D03*
X019646Y022617D03*
X018356Y028735D03*
X017686Y028735D03*
X017693Y029555D03*
X018362Y029555D03*
X017509Y030371D03*
X016840Y030371D03*
X016847Y031172D03*
X017516Y031172D03*
X021011Y030447D03*
X021681Y030447D03*
D13*
X020434Y030534D03*
X020434Y030337D03*
X020434Y030731D03*
X020434Y030928D03*
X020434Y031125D03*
X018770Y031125D03*
X018770Y030928D03*
X018770Y030731D03*
X018770Y030534D03*
X018770Y030337D03*
X002269Y010195D03*
X002269Y009998D03*
X002269Y009801D03*
X002269Y009604D03*
X002269Y009407D03*
X002269Y009211D03*
X043052Y009211D03*
X043052Y009407D03*
X043052Y009604D03*
X043052Y009801D03*
X043052Y009998D03*
X043052Y010195D03*
D14*
X028290Y003715D03*
X028290Y003046D03*
X013093Y003069D03*
X013093Y003738D03*
X026008Y018278D03*
X026008Y018947D03*
X019044Y028594D03*
X019044Y029263D03*
X003349Y019703D03*
X002680Y019703D03*
D15*
X020521Y028420D03*
X020521Y029523D03*
D16*
X025065Y039391D03*
X026797Y039391D03*
D17*
X023198Y039398D03*
X021662Y039398D03*
D18*
G36*
X041162Y005036D02*
X040648Y005550D01*
X040954Y005856D01*
X041468Y005342D01*
X041162Y005036D01*
G37*
G36*
X040772Y004647D02*
X040258Y005161D01*
X040564Y005467D01*
X041078Y004953D01*
X040772Y004647D01*
G37*
G36*
X040382Y004257D02*
X039868Y004771D01*
X040174Y005077D01*
X040688Y004563D01*
X040382Y004257D01*
G37*
G36*
X042234Y002405D02*
X041720Y002919D01*
X042026Y003225D01*
X042540Y002711D01*
X042234Y002405D01*
G37*
G36*
X042623Y002795D02*
X042109Y003309D01*
X042415Y003615D01*
X042929Y003101D01*
X042623Y002795D01*
G37*
G36*
X043013Y003185D02*
X042499Y003699D01*
X042805Y004005D01*
X043319Y003491D01*
X043013Y003185D01*
G37*
D19*
G36*
X042730Y004739D02*
X042201Y005268D01*
X042756Y005823D01*
X043285Y005294D01*
X042730Y004739D01*
G37*
G36*
X040435Y002441D02*
X039906Y002970D01*
X040461Y003525D01*
X040990Y002996D01*
X040435Y002441D01*
G37*
D20*
X029137Y004270D03*
X028546Y004270D03*
X028034Y004270D03*
X027444Y004270D03*
X013940Y004270D03*
X013349Y004270D03*
X012837Y004270D03*
X012247Y004270D03*
X015775Y017977D03*
X015752Y018676D03*
X016343Y018676D03*
X016366Y017977D03*
X016336Y019380D03*
X016310Y020088D03*
X015720Y020088D03*
X015745Y019380D03*
X019412Y039939D03*
X020003Y039939D03*
D21*
X015928Y024880D03*
X015928Y021612D03*
X028448Y021612D03*
X028448Y024880D03*
D22*
X003487Y020884D03*
X002700Y021258D03*
X002700Y020510D03*
D23*
X018321Y022943D03*
X019069Y022943D03*
X018695Y023730D03*
D24*
X019845Y017734D03*
X020239Y017734D03*
X020633Y017734D03*
X021026Y017734D03*
X021420Y017734D03*
X021814Y017734D03*
X022208Y017734D03*
X022601Y017734D03*
X022995Y017734D03*
X023389Y017734D03*
X023782Y017734D03*
X024176Y017734D03*
X024570Y017734D03*
X024963Y017734D03*
X025357Y017734D03*
X025160Y016789D03*
X024767Y016789D03*
X024373Y016789D03*
X023979Y016789D03*
X023586Y016789D03*
X023192Y016789D03*
X022798Y016789D03*
X022404Y016789D03*
X022011Y016789D03*
X021617Y016789D03*
X021223Y016789D03*
X020830Y016789D03*
X020436Y016789D03*
X020042Y016789D03*
X025554Y016789D03*
D25*
X026223Y017262D03*
X019176Y017262D03*
D26*
X041834Y038974D03*
D27*
X041834Y037892D03*
D28*
X031282Y039211D03*
D29*
X031125Y030431D03*
X031125Y028718D03*
X041912Y030254D03*
D30*
X041952Y028167D03*
X041243Y028167D03*
D31*
X040465Y035008D03*
X039826Y035008D03*
X038841Y035008D03*
X037857Y035008D03*
X036873Y035008D03*
X035889Y035008D03*
X034904Y035008D03*
X033920Y035008D03*
D32*
X032936Y035461D03*
D33*
X031341Y036121D02*
X031341Y036946D01*
X030909Y036946D01*
X030909Y036121D01*
X031341Y036121D01*
X031341Y036148D02*
X030909Y036148D01*
X030909Y036187D02*
X031341Y036187D01*
X031341Y036225D02*
X030909Y036225D01*
X030909Y036264D02*
X031341Y036264D01*
X031341Y036302D02*
X030909Y036302D01*
X030909Y036341D02*
X031341Y036341D01*
X031341Y036379D02*
X030909Y036379D01*
X030909Y036418D02*
X031341Y036418D01*
X031341Y036456D02*
X030909Y036456D01*
X030909Y036495D02*
X031341Y036495D01*
X031341Y036533D02*
X030909Y036533D01*
X030909Y036572D02*
X031341Y036572D01*
X031341Y036610D02*
X030909Y036610D01*
X030909Y036649D02*
X031341Y036649D01*
X031341Y036687D02*
X030909Y036687D01*
X030909Y036726D02*
X031341Y036726D01*
X031341Y036764D02*
X030909Y036764D01*
X030909Y036803D02*
X031341Y036803D01*
X031341Y036841D02*
X030909Y036841D01*
X030909Y036880D02*
X031341Y036880D01*
X031341Y036918D02*
X030909Y036918D01*
X041541Y036851D02*
X041541Y036321D01*
X042150Y036321D01*
X042150Y037067D01*
X041619Y037067D01*
X041619Y036999D01*
X041541Y036851D01*
X041541Y036841D02*
X042150Y036841D01*
X042150Y036803D02*
X041541Y036803D01*
X041541Y036764D02*
X042150Y036764D01*
X042150Y036726D02*
X041541Y036726D01*
X041541Y036687D02*
X042150Y036687D01*
X042150Y036649D02*
X041541Y036649D01*
X041541Y036610D02*
X042150Y036610D01*
X042150Y036572D02*
X041541Y036572D01*
X041541Y036533D02*
X042150Y036533D01*
X042150Y036495D02*
X041541Y036495D01*
X041541Y036456D02*
X042150Y036456D01*
X042150Y036418D02*
X041541Y036418D01*
X041541Y036379D02*
X042150Y036379D01*
X042150Y036341D02*
X041541Y036341D01*
X041556Y036880D02*
X042150Y036880D01*
X042150Y036918D02*
X041577Y036918D01*
X041597Y036957D02*
X042150Y036957D01*
X042150Y036995D02*
X041618Y036995D01*
X041619Y037034D02*
X042150Y037034D01*
D34*
X026400Y037289D03*
X026400Y036305D03*
X026400Y035321D03*
X026400Y034337D03*
X026400Y033352D03*
X026400Y032368D03*
X018526Y032368D03*
X018526Y033352D03*
X018526Y034337D03*
X018526Y035321D03*
X018526Y036305D03*
X018526Y037289D03*
D35*
X005456Y011563D03*
X005456Y009575D03*
D36*
X006824Y009466D03*
X008812Y009466D03*
D37*
X008566Y031671D03*
X013684Y031671D03*
D38*
X001589Y011135D03*
X001589Y008271D03*
X043731Y008271D03*
X043731Y011135D03*
M02*
