G75*
G70*
%OFA0B0*%
%FSLAX24Y24*%
%IPPOS*%
%LPD*%
%AMOC8*
5,1,8,0,0,1.08239X$1,22.5*
%
%ADD10C,0.0008*%
%ADD11C,0.0000*%
%ADD12R,0.0866X0.0236*%
%ADD13R,0.0512X0.0630*%
%ADD14R,0.0630X0.0512*%
%ADD15R,0.0591X0.0512*%
%ADD16R,0.0512X0.0591*%
%ADD17R,0.0846X0.2165*%
%ADD18R,0.0551X0.0394*%
%ADD19C,0.0236*%
%ADD20R,0.0200X0.0787*%
%ADD21R,0.0197X0.0787*%
%ADD22R,0.0394X0.0433*%
%ADD23R,0.0354X0.1181*%
%ADD24R,0.0630X0.1063*%
%ADD25R,0.0433X0.0394*%
%ADD26R,0.0098X0.0787*%
%ADD27R,0.0787X0.0098*%
%ADD28R,0.0701X0.0402*%
%ADD29R,0.0945X0.0945*%
%ADD30R,0.1063X0.0630*%
%ADD31R,0.0394X0.0551*%
%ADD32R,0.0500X0.0740*%
%ADD33R,0.0315X0.0315*%
%ADD34R,0.0472X0.0217*%
%ADD35R,0.0787X0.0472*%
%ADD36R,0.0551X0.0551*%
%ADD37R,0.0402X0.0701*%
%ADD38R,0.0394X0.0157*%
%ADD39R,0.0157X0.0394*%
%ADD40R,0.0880X0.0480*%
%ADD41R,0.0866X0.1417*%
%ADD42R,0.0472X0.0787*%
%ADD43R,0.0354X0.0315*%
%ADD44R,0.0315X0.0354*%
%ADD45R,0.0276X0.0669*%
%ADD46R,0.0472X0.0197*%
%ADD47R,0.0197X0.0472*%
%ADD48R,0.1004X0.0984*%
%ADD49R,0.0120X0.0390*%
D10*
X000180Y000805D02*
X000180Y040805D01*
X029550Y040805D01*
X045180Y040805D01*
X045180Y040305D01*
X045172Y040675D02*
X045172Y000805D01*
X031912Y000805D01*
X031834Y000805D01*
X031519Y000805D01*
X024566Y000805D01*
X024566Y011305D01*
X016803Y011305D01*
X016803Y000805D01*
X009786Y000805D01*
X009708Y000805D01*
X008546Y000805D01*
X008546Y005305D01*
X003269Y005305D01*
X003269Y000805D01*
X000180Y000805D01*
X000180Y040805D02*
X000180Y040833D01*
D11*
X000962Y039305D02*
X000964Y039355D01*
X000970Y039405D01*
X000980Y039454D01*
X000994Y039502D01*
X001011Y039549D01*
X001032Y039594D01*
X001057Y039638D01*
X001085Y039679D01*
X001117Y039718D01*
X001151Y039755D01*
X001188Y039789D01*
X001228Y039819D01*
X001270Y039846D01*
X001314Y039870D01*
X001360Y039891D01*
X001407Y039907D01*
X001455Y039920D01*
X001505Y039929D01*
X001554Y039934D01*
X001605Y039935D01*
X001655Y039932D01*
X001704Y039925D01*
X001753Y039914D01*
X001801Y039899D01*
X001847Y039881D01*
X001892Y039859D01*
X001935Y039833D01*
X001976Y039804D01*
X002015Y039772D01*
X002051Y039737D01*
X002083Y039699D01*
X002113Y039659D01*
X002140Y039616D01*
X002163Y039572D01*
X002182Y039526D01*
X002198Y039478D01*
X002210Y039429D01*
X002218Y039380D01*
X002222Y039330D01*
X002222Y039280D01*
X002218Y039230D01*
X002210Y039181D01*
X002198Y039132D01*
X002182Y039084D01*
X002163Y039038D01*
X002140Y038994D01*
X002113Y038951D01*
X002083Y038911D01*
X002051Y038873D01*
X002015Y038838D01*
X001976Y038806D01*
X001935Y038777D01*
X001892Y038751D01*
X001847Y038729D01*
X001801Y038711D01*
X001753Y038696D01*
X001704Y038685D01*
X001655Y038678D01*
X001605Y038675D01*
X001554Y038676D01*
X001505Y038681D01*
X001455Y038690D01*
X001407Y038703D01*
X001360Y038719D01*
X001314Y038740D01*
X001270Y038764D01*
X001228Y038791D01*
X001188Y038821D01*
X001151Y038855D01*
X001117Y038892D01*
X001085Y038931D01*
X001057Y038972D01*
X001032Y039016D01*
X001011Y039061D01*
X000994Y039108D01*
X000980Y039156D01*
X000970Y039205D01*
X000964Y039255D01*
X000962Y039305D01*
X000602Y036410D02*
X000604Y036460D01*
X000610Y036510D01*
X000620Y036559D01*
X000634Y036607D01*
X000651Y036654D01*
X000672Y036699D01*
X000697Y036743D01*
X000725Y036784D01*
X000757Y036823D01*
X000791Y036860D01*
X000828Y036894D01*
X000868Y036924D01*
X000910Y036951D01*
X000954Y036975D01*
X001000Y036996D01*
X001047Y037012D01*
X001095Y037025D01*
X001145Y037034D01*
X001194Y037039D01*
X001245Y037040D01*
X001295Y037037D01*
X001344Y037030D01*
X001393Y037019D01*
X001441Y037004D01*
X001487Y036986D01*
X001532Y036964D01*
X001575Y036938D01*
X001616Y036909D01*
X001655Y036877D01*
X001691Y036842D01*
X001723Y036804D01*
X001753Y036764D01*
X001780Y036721D01*
X001803Y036677D01*
X001822Y036631D01*
X001838Y036583D01*
X001850Y036534D01*
X001858Y036485D01*
X001862Y036435D01*
X001862Y036385D01*
X001858Y036335D01*
X001850Y036286D01*
X001838Y036237D01*
X001822Y036189D01*
X001803Y036143D01*
X001780Y036099D01*
X001753Y036056D01*
X001723Y036016D01*
X001691Y035978D01*
X001655Y035943D01*
X001616Y035911D01*
X001575Y035882D01*
X001532Y035856D01*
X001487Y035834D01*
X001441Y035816D01*
X001393Y035801D01*
X001344Y035790D01*
X001295Y035783D01*
X001245Y035780D01*
X001194Y035781D01*
X001145Y035786D01*
X001095Y035795D01*
X001047Y035808D01*
X001000Y035824D01*
X000954Y035845D01*
X000910Y035869D01*
X000868Y035896D01*
X000828Y035926D01*
X000791Y035960D01*
X000757Y035997D01*
X000725Y036036D01*
X000697Y036077D01*
X000672Y036121D01*
X000651Y036166D01*
X000634Y036213D01*
X000620Y036261D01*
X000610Y036310D01*
X000604Y036360D01*
X000602Y036410D01*
X000515Y026498D02*
X000517Y026548D01*
X000523Y026598D01*
X000533Y026647D01*
X000547Y026695D01*
X000564Y026742D01*
X000585Y026787D01*
X000610Y026831D01*
X000638Y026872D01*
X000670Y026911D01*
X000704Y026948D01*
X000741Y026982D01*
X000781Y027012D01*
X000823Y027039D01*
X000867Y027063D01*
X000913Y027084D01*
X000960Y027100D01*
X001008Y027113D01*
X001058Y027122D01*
X001107Y027127D01*
X001158Y027128D01*
X001208Y027125D01*
X001257Y027118D01*
X001306Y027107D01*
X001354Y027092D01*
X001400Y027074D01*
X001445Y027052D01*
X001488Y027026D01*
X001529Y026997D01*
X001568Y026965D01*
X001604Y026930D01*
X001636Y026892D01*
X001666Y026852D01*
X001693Y026809D01*
X001716Y026765D01*
X001735Y026719D01*
X001751Y026671D01*
X001763Y026622D01*
X001771Y026573D01*
X001775Y026523D01*
X001775Y026473D01*
X001771Y026423D01*
X001763Y026374D01*
X001751Y026325D01*
X001735Y026277D01*
X001716Y026231D01*
X001693Y026187D01*
X001666Y026144D01*
X001636Y026104D01*
X001604Y026066D01*
X001568Y026031D01*
X001529Y025999D01*
X001488Y025970D01*
X001445Y025944D01*
X001400Y025922D01*
X001354Y025904D01*
X001306Y025889D01*
X001257Y025878D01*
X001208Y025871D01*
X001158Y025868D01*
X001107Y025869D01*
X001058Y025874D01*
X001008Y025883D01*
X000960Y025896D01*
X000913Y025912D01*
X000867Y025933D01*
X000823Y025957D01*
X000781Y025984D01*
X000741Y026014D01*
X000704Y026048D01*
X000670Y026085D01*
X000638Y026124D01*
X000610Y026165D01*
X000585Y026209D01*
X000564Y026254D01*
X000547Y026301D01*
X000533Y026349D01*
X000523Y026398D01*
X000517Y026448D01*
X000515Y026498D01*
X014901Y029305D02*
X014903Y029355D01*
X014909Y029405D01*
X014919Y029454D01*
X014933Y029502D01*
X014950Y029549D01*
X014971Y029594D01*
X014996Y029638D01*
X015024Y029679D01*
X015056Y029718D01*
X015090Y029755D01*
X015127Y029789D01*
X015167Y029819D01*
X015209Y029846D01*
X015253Y029870D01*
X015299Y029891D01*
X015346Y029907D01*
X015394Y029920D01*
X015444Y029929D01*
X015493Y029934D01*
X015544Y029935D01*
X015594Y029932D01*
X015643Y029925D01*
X015692Y029914D01*
X015740Y029899D01*
X015786Y029881D01*
X015831Y029859D01*
X015874Y029833D01*
X015915Y029804D01*
X015954Y029772D01*
X015990Y029737D01*
X016022Y029699D01*
X016052Y029659D01*
X016079Y029616D01*
X016102Y029572D01*
X016121Y029526D01*
X016137Y029478D01*
X016149Y029429D01*
X016157Y029380D01*
X016161Y029330D01*
X016161Y029280D01*
X016157Y029230D01*
X016149Y029181D01*
X016137Y029132D01*
X016121Y029084D01*
X016102Y029038D01*
X016079Y028994D01*
X016052Y028951D01*
X016022Y028911D01*
X015990Y028873D01*
X015954Y028838D01*
X015915Y028806D01*
X015874Y028777D01*
X015831Y028751D01*
X015786Y028729D01*
X015740Y028711D01*
X015692Y028696D01*
X015643Y028685D01*
X015594Y028678D01*
X015544Y028675D01*
X015493Y028676D01*
X015444Y028681D01*
X015394Y028690D01*
X015346Y028703D01*
X015299Y028719D01*
X015253Y028740D01*
X015209Y028764D01*
X015167Y028791D01*
X015127Y028821D01*
X015090Y028855D01*
X015056Y028892D01*
X015024Y028931D01*
X014996Y028972D01*
X014971Y029016D01*
X014950Y029061D01*
X014933Y029108D01*
X014919Y029156D01*
X014909Y029205D01*
X014903Y029255D01*
X014901Y029305D01*
X031518Y037104D02*
X031520Y037137D01*
X031526Y037169D01*
X031535Y037200D01*
X031548Y037230D01*
X031565Y037258D01*
X031585Y037284D01*
X031608Y037308D01*
X031633Y037328D01*
X031661Y037346D01*
X031690Y037360D01*
X031721Y037370D01*
X031753Y037377D01*
X031786Y037380D01*
X031819Y037379D01*
X031851Y037374D01*
X031882Y037365D01*
X031913Y037353D01*
X031941Y037337D01*
X031968Y037318D01*
X031992Y037296D01*
X032013Y037271D01*
X032032Y037244D01*
X032047Y037215D01*
X032058Y037185D01*
X032066Y037153D01*
X032070Y037120D01*
X032070Y037088D01*
X032066Y037055D01*
X032058Y037023D01*
X032047Y036993D01*
X032032Y036964D01*
X032013Y036937D01*
X031992Y036912D01*
X031968Y036890D01*
X031941Y036871D01*
X031913Y036855D01*
X031882Y036843D01*
X031851Y036834D01*
X031819Y036829D01*
X031786Y036828D01*
X031753Y036831D01*
X031721Y036838D01*
X031690Y036848D01*
X031661Y036862D01*
X031633Y036880D01*
X031608Y036900D01*
X031585Y036924D01*
X031565Y036950D01*
X031548Y036978D01*
X031535Y037008D01*
X031526Y037039D01*
X031520Y037071D01*
X031518Y037104D01*
X040967Y037104D02*
X040969Y037137D01*
X040975Y037169D01*
X040984Y037200D01*
X040997Y037230D01*
X041014Y037258D01*
X041034Y037284D01*
X041057Y037308D01*
X041082Y037328D01*
X041110Y037346D01*
X041139Y037360D01*
X041170Y037370D01*
X041202Y037377D01*
X041235Y037380D01*
X041268Y037379D01*
X041300Y037374D01*
X041331Y037365D01*
X041362Y037353D01*
X041390Y037337D01*
X041417Y037318D01*
X041441Y037296D01*
X041462Y037271D01*
X041481Y037244D01*
X041496Y037215D01*
X041507Y037185D01*
X041515Y037153D01*
X041519Y037120D01*
X041519Y037088D01*
X041515Y037055D01*
X041507Y037023D01*
X041496Y036993D01*
X041481Y036964D01*
X041462Y036937D01*
X041441Y036912D01*
X041417Y036890D01*
X041390Y036871D01*
X041362Y036855D01*
X041331Y036843D01*
X041300Y036834D01*
X041268Y036829D01*
X041235Y036828D01*
X041202Y036831D01*
X041170Y036838D01*
X041139Y036848D01*
X041110Y036862D01*
X041082Y036880D01*
X041057Y036900D01*
X041034Y036924D01*
X041014Y036950D01*
X040997Y036978D01*
X040984Y037008D01*
X040975Y037039D01*
X040969Y037071D01*
X040967Y037104D01*
X043050Y039393D02*
X043052Y039443D01*
X043058Y039493D01*
X043068Y039542D01*
X043082Y039590D01*
X043099Y039637D01*
X043120Y039682D01*
X043145Y039726D01*
X043173Y039767D01*
X043205Y039806D01*
X043239Y039843D01*
X043276Y039877D01*
X043316Y039907D01*
X043358Y039934D01*
X043402Y039958D01*
X043448Y039979D01*
X043495Y039995D01*
X043543Y040008D01*
X043593Y040017D01*
X043642Y040022D01*
X043693Y040023D01*
X043743Y040020D01*
X043792Y040013D01*
X043841Y040002D01*
X043889Y039987D01*
X043935Y039969D01*
X043980Y039947D01*
X044023Y039921D01*
X044064Y039892D01*
X044103Y039860D01*
X044139Y039825D01*
X044171Y039787D01*
X044201Y039747D01*
X044228Y039704D01*
X044251Y039660D01*
X044270Y039614D01*
X044286Y039566D01*
X044298Y039517D01*
X044306Y039468D01*
X044310Y039418D01*
X044310Y039368D01*
X044306Y039318D01*
X044298Y039269D01*
X044286Y039220D01*
X044270Y039172D01*
X044251Y039126D01*
X044228Y039082D01*
X044201Y039039D01*
X044171Y038999D01*
X044139Y038961D01*
X044103Y038926D01*
X044064Y038894D01*
X044023Y038865D01*
X043980Y038839D01*
X043935Y038817D01*
X043889Y038799D01*
X043841Y038784D01*
X043792Y038773D01*
X043743Y038766D01*
X043693Y038763D01*
X043642Y038764D01*
X043593Y038769D01*
X043543Y038778D01*
X043495Y038791D01*
X043448Y038807D01*
X043402Y038828D01*
X043358Y038852D01*
X043316Y038879D01*
X043276Y038909D01*
X043239Y038943D01*
X043205Y038980D01*
X043173Y039019D01*
X043145Y039060D01*
X043120Y039104D01*
X043099Y039149D01*
X043082Y039196D01*
X043068Y039244D01*
X043058Y039293D01*
X043052Y039343D01*
X043050Y039393D01*
X043050Y029305D02*
X043052Y029355D01*
X043058Y029405D01*
X043068Y029454D01*
X043082Y029502D01*
X043099Y029549D01*
X043120Y029594D01*
X043145Y029638D01*
X043173Y029679D01*
X043205Y029718D01*
X043239Y029755D01*
X043276Y029789D01*
X043316Y029819D01*
X043358Y029846D01*
X043402Y029870D01*
X043448Y029891D01*
X043495Y029907D01*
X043543Y029920D01*
X043593Y029929D01*
X043642Y029934D01*
X043693Y029935D01*
X043743Y029932D01*
X043792Y029925D01*
X043841Y029914D01*
X043889Y029899D01*
X043935Y029881D01*
X043980Y029859D01*
X044023Y029833D01*
X044064Y029804D01*
X044103Y029772D01*
X044139Y029737D01*
X044171Y029699D01*
X044201Y029659D01*
X044228Y029616D01*
X044251Y029572D01*
X044270Y029526D01*
X044286Y029478D01*
X044298Y029429D01*
X044306Y029380D01*
X044310Y029330D01*
X044310Y029280D01*
X044306Y029230D01*
X044298Y029181D01*
X044286Y029132D01*
X044270Y029084D01*
X044251Y029038D01*
X044228Y028994D01*
X044201Y028951D01*
X044171Y028911D01*
X044139Y028873D01*
X044103Y028838D01*
X044064Y028806D01*
X044023Y028777D01*
X043980Y028751D01*
X043935Y028729D01*
X043889Y028711D01*
X043841Y028696D01*
X043792Y028685D01*
X043743Y028678D01*
X043693Y028675D01*
X043642Y028676D01*
X043593Y028681D01*
X043543Y028690D01*
X043495Y028703D01*
X043448Y028719D01*
X043402Y028740D01*
X043358Y028764D01*
X043316Y028791D01*
X043276Y028821D01*
X043239Y028855D01*
X043205Y028892D01*
X043173Y028931D01*
X043145Y028972D01*
X043120Y029016D01*
X043099Y029061D01*
X043082Y029108D01*
X043068Y029156D01*
X043058Y029205D01*
X043052Y029255D01*
X043050Y029305D01*
X041977Y004654D02*
X041979Y004678D01*
X041985Y004701D01*
X041994Y004723D01*
X042007Y004743D01*
X042022Y004761D01*
X042041Y004776D01*
X042062Y004788D01*
X042084Y004796D01*
X042107Y004801D01*
X042131Y004802D01*
X042155Y004799D01*
X042177Y004792D01*
X042199Y004782D01*
X042219Y004769D01*
X042236Y004752D01*
X042250Y004733D01*
X042261Y004712D01*
X042269Y004689D01*
X042273Y004666D01*
X042273Y004642D01*
X042269Y004619D01*
X042261Y004596D01*
X042250Y004575D01*
X042236Y004556D01*
X042219Y004539D01*
X042199Y004526D01*
X042177Y004516D01*
X042155Y004509D01*
X042131Y004506D01*
X042107Y004507D01*
X042084Y004512D01*
X042062Y004520D01*
X042041Y004532D01*
X042022Y004547D01*
X042007Y004565D01*
X041994Y004585D01*
X041985Y004607D01*
X041979Y004630D01*
X041977Y004654D01*
X040858Y003602D02*
X040860Y003630D01*
X040866Y003658D01*
X040875Y003684D01*
X040888Y003710D01*
X040904Y003733D01*
X040924Y003753D01*
X040946Y003771D01*
X040970Y003786D01*
X040996Y003797D01*
X041023Y003805D01*
X041051Y003809D01*
X041079Y003809D01*
X041107Y003805D01*
X041134Y003797D01*
X041160Y003786D01*
X041184Y003771D01*
X041206Y003753D01*
X041226Y003733D01*
X041242Y003710D01*
X041255Y003684D01*
X041264Y003658D01*
X041270Y003630D01*
X041272Y003602D01*
X041270Y003574D01*
X041264Y003546D01*
X041255Y003520D01*
X041242Y003494D01*
X041226Y003471D01*
X041206Y003451D01*
X041184Y003433D01*
X041160Y003418D01*
X041134Y003407D01*
X041107Y003399D01*
X041079Y003395D01*
X041051Y003395D01*
X041023Y003399D01*
X040996Y003407D01*
X040970Y003418D01*
X040946Y003433D01*
X040924Y003451D01*
X040904Y003471D01*
X040888Y003494D01*
X040875Y003520D01*
X040866Y003546D01*
X040860Y003574D01*
X040858Y003602D01*
X043050Y002217D02*
X043052Y002267D01*
X043058Y002317D01*
X043068Y002366D01*
X043082Y002414D01*
X043099Y002461D01*
X043120Y002506D01*
X043145Y002550D01*
X043173Y002591D01*
X043205Y002630D01*
X043239Y002667D01*
X043276Y002701D01*
X043316Y002731D01*
X043358Y002758D01*
X043402Y002782D01*
X043448Y002803D01*
X043495Y002819D01*
X043543Y002832D01*
X043593Y002841D01*
X043642Y002846D01*
X043693Y002847D01*
X043743Y002844D01*
X043792Y002837D01*
X043841Y002826D01*
X043889Y002811D01*
X043935Y002793D01*
X043980Y002771D01*
X044023Y002745D01*
X044064Y002716D01*
X044103Y002684D01*
X044139Y002649D01*
X044171Y002611D01*
X044201Y002571D01*
X044228Y002528D01*
X044251Y002484D01*
X044270Y002438D01*
X044286Y002390D01*
X044298Y002341D01*
X044306Y002292D01*
X044310Y002242D01*
X044310Y002192D01*
X044306Y002142D01*
X044298Y002093D01*
X044286Y002044D01*
X044270Y001996D01*
X044251Y001950D01*
X044228Y001906D01*
X044201Y001863D01*
X044171Y001823D01*
X044139Y001785D01*
X044103Y001750D01*
X044064Y001718D01*
X044023Y001689D01*
X043980Y001663D01*
X043935Y001641D01*
X043889Y001623D01*
X043841Y001608D01*
X043792Y001597D01*
X043743Y001590D01*
X043693Y001587D01*
X043642Y001588D01*
X043593Y001593D01*
X043543Y001602D01*
X043495Y001615D01*
X043448Y001631D01*
X043402Y001652D01*
X043358Y001676D01*
X043316Y001703D01*
X043276Y001733D01*
X043239Y001767D01*
X043205Y001804D01*
X043173Y001843D01*
X043145Y001884D01*
X043120Y001928D01*
X043099Y001973D01*
X043082Y002020D01*
X043068Y002068D01*
X043058Y002117D01*
X043052Y002167D01*
X043050Y002217D01*
X001050Y002305D02*
X001052Y002355D01*
X001058Y002405D01*
X001068Y002454D01*
X001082Y002502D01*
X001099Y002549D01*
X001120Y002594D01*
X001145Y002638D01*
X001173Y002679D01*
X001205Y002718D01*
X001239Y002755D01*
X001276Y002789D01*
X001316Y002819D01*
X001358Y002846D01*
X001402Y002870D01*
X001448Y002891D01*
X001495Y002907D01*
X001543Y002920D01*
X001593Y002929D01*
X001642Y002934D01*
X001693Y002935D01*
X001743Y002932D01*
X001792Y002925D01*
X001841Y002914D01*
X001889Y002899D01*
X001935Y002881D01*
X001980Y002859D01*
X002023Y002833D01*
X002064Y002804D01*
X002103Y002772D01*
X002139Y002737D01*
X002171Y002699D01*
X002201Y002659D01*
X002228Y002616D01*
X002251Y002572D01*
X002270Y002526D01*
X002286Y002478D01*
X002298Y002429D01*
X002306Y002380D01*
X002310Y002330D01*
X002310Y002280D01*
X002306Y002230D01*
X002298Y002181D01*
X002286Y002132D01*
X002270Y002084D01*
X002251Y002038D01*
X002228Y001994D01*
X002201Y001951D01*
X002171Y001911D01*
X002139Y001873D01*
X002103Y001838D01*
X002064Y001806D01*
X002023Y001777D01*
X001980Y001751D01*
X001935Y001729D01*
X001889Y001711D01*
X001841Y001696D01*
X001792Y001685D01*
X001743Y001678D01*
X001693Y001675D01*
X001642Y001676D01*
X001593Y001681D01*
X001543Y001690D01*
X001495Y001703D01*
X001448Y001719D01*
X001402Y001740D01*
X001358Y001764D01*
X001316Y001791D01*
X001276Y001821D01*
X001239Y001855D01*
X001205Y001892D01*
X001173Y001931D01*
X001145Y001972D01*
X001120Y002016D01*
X001099Y002061D01*
X001082Y002108D01*
X001068Y002156D01*
X001058Y002205D01*
X001052Y002255D01*
X001050Y002305D01*
D12*
X004711Y011342D03*
X004711Y011842D03*
X004711Y012342D03*
X004711Y012842D03*
X006759Y012842D03*
X006759Y012342D03*
X006759Y011842D03*
X006759Y011342D03*
X019290Y032579D03*
X019290Y033079D03*
X019290Y033579D03*
X019290Y034079D03*
X021337Y034079D03*
X021337Y033579D03*
X021337Y033079D03*
X021337Y032579D03*
X035849Y011476D03*
X035849Y010976D03*
X035849Y010476D03*
X035849Y009976D03*
X038674Y009976D03*
X038674Y010476D03*
X038674Y010976D03*
X038674Y011476D03*
D13*
X006473Y010514D03*
X005686Y010514D03*
X004406Y013414D03*
X003618Y013414D03*
X005232Y013612D03*
X006020Y013612D03*
D14*
X004400Y014139D03*
X004400Y014927D03*
X006070Y022205D03*
X006070Y022992D03*
D15*
X006821Y014281D03*
X006821Y013611D03*
X003614Y012347D03*
X003614Y011678D03*
X007739Y006927D03*
X007739Y006179D03*
D16*
X006149Y007352D03*
X005479Y007352D03*
X007695Y012848D03*
X008364Y012848D03*
D17*
X008802Y009474D03*
X007290Y009474D03*
D18*
X006309Y008654D03*
X005443Y008280D03*
X005443Y009028D03*
X024104Y017738D03*
X024970Y017364D03*
X024970Y018112D03*
D19*
X026705Y011341D03*
X026705Y010554D03*
X027492Y010554D03*
X027492Y011341D03*
X028279Y011341D03*
X028279Y010554D03*
X028279Y009766D03*
X027492Y009766D03*
X026705Y009766D03*
X026705Y008585D03*
X027492Y008585D03*
X027492Y007798D03*
X027492Y007011D03*
X026705Y007011D03*
X026705Y007798D03*
X025917Y007798D03*
X025917Y007011D03*
X025917Y008585D03*
X029067Y008585D03*
X029067Y007798D03*
X029067Y007011D03*
X029854Y007011D03*
X029854Y007798D03*
X030642Y007798D03*
X030642Y007011D03*
X030642Y008585D03*
X029854Y008585D03*
X029854Y009766D03*
X029067Y009766D03*
X029067Y010554D03*
X029067Y011341D03*
X029854Y011341D03*
X029854Y010554D03*
X015459Y008590D03*
X014672Y008590D03*
X013884Y008590D03*
X013884Y007802D03*
X013884Y007015D03*
X014672Y007015D03*
X014672Y007802D03*
X015459Y007802D03*
X015459Y007015D03*
X014672Y009771D03*
X014672Y010558D03*
X014672Y011346D03*
X013884Y011346D03*
X013097Y011346D03*
X013097Y010558D03*
X013884Y010558D03*
X013884Y009771D03*
X013097Y009771D03*
X012310Y009771D03*
X012310Y010558D03*
X012310Y011346D03*
X011522Y011346D03*
X011522Y010558D03*
X011522Y009771D03*
X011522Y008590D03*
X010735Y008590D03*
X010735Y007802D03*
X011522Y007802D03*
X011522Y007015D03*
X010735Y007015D03*
X012310Y007015D03*
X012310Y007802D03*
X012310Y008590D03*
D20*
X012703Y005637D03*
X011916Y005637D03*
X011522Y005637D03*
X011128Y005637D03*
X010735Y005637D03*
X013491Y005637D03*
X014278Y005637D03*
X014672Y005637D03*
X015065Y005637D03*
X015459Y005637D03*
X015459Y012723D03*
X014672Y012723D03*
X014278Y012723D03*
X013884Y012723D03*
X013491Y012723D03*
X013097Y012723D03*
X012703Y012723D03*
X012310Y012723D03*
X011916Y012723D03*
X011522Y012723D03*
X010735Y012723D03*
X025917Y012719D03*
X026705Y012719D03*
X027098Y012719D03*
X027492Y012719D03*
X027886Y012719D03*
X028279Y012719D03*
X028673Y012719D03*
X029067Y012719D03*
X029461Y012719D03*
X029854Y012719D03*
X030642Y012719D03*
X030642Y005633D03*
X030248Y005633D03*
X029854Y005633D03*
X029461Y005633D03*
X028673Y005633D03*
X027886Y005633D03*
X027098Y005633D03*
X026705Y005633D03*
X026311Y005633D03*
X025917Y005633D03*
D21*
X025524Y005635D03*
X027492Y005635D03*
X028279Y005635D03*
X029067Y005635D03*
X031035Y005635D03*
X031035Y012717D03*
X030248Y012717D03*
X026311Y012717D03*
X025524Y012717D03*
X015853Y012721D03*
X015065Y012721D03*
X011128Y012721D03*
X010341Y012721D03*
X010341Y005639D03*
X012310Y005639D03*
X013097Y005639D03*
X013884Y005639D03*
X015853Y005639D03*
D22*
X010205Y013987D03*
X009536Y013987D03*
X009694Y015116D03*
X008911Y015113D03*
X008911Y015782D03*
X009694Y015785D03*
X010481Y015788D03*
X010481Y015119D03*
X011276Y015118D03*
X012064Y015123D03*
X012064Y015792D03*
X011276Y015787D03*
X012817Y015783D03*
X012817Y015114D03*
X013595Y015098D03*
X014392Y015098D03*
X014392Y015768D03*
X013595Y015767D03*
X015252Y015741D03*
X015252Y015072D03*
X015938Y015048D03*
X015938Y015717D03*
X016755Y015729D03*
X016755Y015059D03*
X019541Y017643D03*
X019541Y018312D03*
X017738Y018571D03*
X017738Y019241D03*
X017987Y020326D03*
X017987Y020996D03*
X021645Y020969D03*
X021645Y021638D03*
X022563Y021626D03*
X022563Y020957D03*
X023435Y020963D03*
X023435Y021633D03*
X024199Y022877D03*
X024199Y023546D03*
X024191Y024139D03*
X024191Y024809D03*
X028876Y020150D03*
X028876Y019481D03*
X029975Y017606D03*
X029975Y016936D03*
X030981Y016952D03*
X030981Y017621D03*
X030129Y015623D03*
X030129Y014954D03*
X029249Y014905D03*
X029249Y015575D03*
X028375Y015538D03*
X028375Y014869D03*
X027487Y014829D03*
X027487Y015499D03*
X026588Y015488D03*
X026588Y014819D03*
X025733Y014796D03*
X025733Y015465D03*
X024874Y015488D03*
X024874Y014818D03*
X024018Y014833D03*
X024018Y015503D03*
X023164Y015500D03*
X023164Y014831D03*
X027042Y016317D03*
X027042Y016987D03*
X034904Y010982D03*
X034904Y010313D03*
X039708Y010943D03*
X039708Y011612D03*
X040554Y028128D03*
X041223Y028128D03*
X042661Y028151D03*
X043330Y028151D03*
X019235Y039289D03*
X019235Y039959D03*
X006873Y029446D03*
X006204Y029446D03*
X001912Y032911D03*
X001912Y033581D03*
X005518Y023711D03*
X006188Y023711D03*
X004242Y019780D03*
X004242Y019111D03*
X004257Y018489D03*
X004257Y017820D03*
X006088Y017496D03*
X006088Y018165D03*
X007622Y018976D03*
X007622Y019645D03*
X014019Y026474D03*
X014688Y026474D03*
X014688Y027183D03*
X014019Y027183D03*
D23*
X035402Y035770D03*
X036190Y035770D03*
X036977Y035770D03*
X037765Y035770D03*
D24*
X023333Y033534D03*
X022230Y033534D03*
X021912Y039388D03*
X023015Y039388D03*
D25*
X008502Y027599D03*
X007833Y027599D03*
X007822Y026738D03*
X008491Y026738D03*
X008603Y025886D03*
X008603Y025216D03*
X005558Y026612D03*
X005558Y027281D03*
X005995Y019840D03*
X005963Y019308D03*
X006632Y019308D03*
X006664Y019840D03*
X006734Y018102D03*
X006734Y017433D03*
X004324Y010409D03*
X003655Y010409D03*
X014929Y017987D03*
X015598Y017987D03*
X015635Y018799D03*
X014966Y018799D03*
X016381Y018679D03*
X017050Y018679D03*
X017036Y017961D03*
X016367Y017961D03*
X016381Y019388D03*
X017050Y019388D03*
X017059Y020106D03*
X016390Y020106D03*
X016263Y020726D03*
X015593Y020726D03*
X020831Y022390D03*
X021501Y022390D03*
X022676Y020174D03*
X023345Y020174D03*
X026917Y022095D03*
X027586Y022095D03*
X029646Y020326D03*
X030315Y020326D03*
X030297Y019538D03*
X029628Y019538D03*
X022487Y012282D03*
X021818Y012282D03*
X038664Y012222D03*
X039334Y012222D03*
X043310Y033089D03*
X043979Y033089D03*
D26*
G36*
X014872Y021136D02*
X014803Y021067D01*
X014248Y021622D01*
X014317Y021691D01*
X014872Y021136D01*
G37*
G36*
X014732Y020996D02*
X014663Y020927D01*
X014108Y021482D01*
X014177Y021551D01*
X014732Y020996D01*
G37*
G36*
X014593Y020857D02*
X014524Y020788D01*
X013969Y021343D01*
X014038Y021412D01*
X014593Y020857D01*
G37*
G36*
X014454Y020718D02*
X014385Y020649D01*
X013830Y021204D01*
X013899Y021273D01*
X014454Y020718D01*
G37*
G36*
X014315Y020579D02*
X014246Y020510D01*
X013691Y021065D01*
X013760Y021134D01*
X014315Y020579D01*
G37*
G36*
X014176Y020440D02*
X014107Y020371D01*
X013552Y020926D01*
X013621Y020995D01*
X014176Y020440D01*
G37*
G36*
X014036Y020301D02*
X013967Y020232D01*
X013412Y020787D01*
X013481Y020856D01*
X014036Y020301D01*
G37*
G36*
X013897Y020161D02*
X013828Y020092D01*
X013273Y020647D01*
X013342Y020716D01*
X013897Y020161D01*
G37*
G36*
X013758Y020022D02*
X013689Y019953D01*
X013134Y020508D01*
X013203Y020577D01*
X013758Y020022D01*
G37*
G36*
X013619Y019883D02*
X013550Y019814D01*
X012995Y020369D01*
X013064Y020438D01*
X013619Y019883D01*
G37*
G36*
X013480Y019744D02*
X013411Y019675D01*
X012856Y020230D01*
X012925Y020299D01*
X013480Y019744D01*
G37*
G36*
X013340Y019605D02*
X013271Y019536D01*
X012716Y020091D01*
X012785Y020160D01*
X013340Y019605D01*
G37*
G36*
X013201Y019465D02*
X013132Y019396D01*
X012577Y019951D01*
X012646Y020020D01*
X013201Y019465D01*
G37*
G36*
X013062Y019326D02*
X012993Y019257D01*
X012438Y019812D01*
X012507Y019881D01*
X013062Y019326D01*
G37*
G36*
X012923Y019187D02*
X012854Y019118D01*
X012299Y019673D01*
X012368Y019742D01*
X012923Y019187D01*
G37*
G36*
X012784Y019048D02*
X012715Y018979D01*
X012160Y019534D01*
X012229Y019603D01*
X012784Y019048D01*
G37*
G36*
X012644Y018909D02*
X012575Y018840D01*
X012020Y019395D01*
X012089Y019464D01*
X012644Y018909D01*
G37*
G36*
X012505Y018769D02*
X012436Y018700D01*
X011881Y019255D01*
X011950Y019324D01*
X012505Y018769D01*
G37*
G36*
X012366Y018630D02*
X012297Y018561D01*
X011742Y019116D01*
X011811Y019185D01*
X012366Y018630D01*
G37*
G36*
X012227Y018491D02*
X012158Y018422D01*
X011603Y018977D01*
X011672Y019046D01*
X012227Y018491D01*
G37*
G36*
X012088Y018352D02*
X012019Y018283D01*
X011464Y018838D01*
X011533Y018907D01*
X012088Y018352D01*
G37*
G36*
X011948Y018213D02*
X011879Y018144D01*
X011324Y018699D01*
X011393Y018768D01*
X011948Y018213D01*
G37*
G36*
X011809Y018073D02*
X011740Y018004D01*
X011185Y018559D01*
X011254Y018628D01*
X011809Y018073D01*
G37*
G36*
X011670Y017934D02*
X011601Y017865D01*
X011046Y018420D01*
X011115Y018489D01*
X011670Y017934D01*
G37*
G36*
X011531Y017795D02*
X011462Y017726D01*
X010907Y018281D01*
X010976Y018350D01*
X011531Y017795D01*
G37*
G36*
X007355Y021971D02*
X007286Y021902D01*
X006731Y022457D01*
X006800Y022526D01*
X007355Y021971D01*
G37*
G36*
X007494Y022110D02*
X007425Y022041D01*
X006870Y022596D01*
X006939Y022665D01*
X007494Y022110D01*
G37*
G36*
X007633Y022249D02*
X007564Y022180D01*
X007009Y022735D01*
X007078Y022804D01*
X007633Y022249D01*
G37*
G36*
X007773Y022388D02*
X007704Y022319D01*
X007149Y022874D01*
X007218Y022943D01*
X007773Y022388D01*
G37*
G36*
X007912Y022528D02*
X007843Y022459D01*
X007288Y023014D01*
X007357Y023083D01*
X007912Y022528D01*
G37*
G36*
X008051Y022667D02*
X007982Y022598D01*
X007427Y023153D01*
X007496Y023222D01*
X008051Y022667D01*
G37*
G36*
X008190Y022806D02*
X008121Y022737D01*
X007566Y023292D01*
X007635Y023361D01*
X008190Y022806D01*
G37*
G36*
X008329Y022945D02*
X008260Y022876D01*
X007705Y023431D01*
X007774Y023500D01*
X008329Y022945D01*
G37*
G36*
X008469Y023084D02*
X008400Y023015D01*
X007845Y023570D01*
X007914Y023639D01*
X008469Y023084D01*
G37*
G36*
X008608Y023224D02*
X008539Y023155D01*
X007984Y023710D01*
X008053Y023779D01*
X008608Y023224D01*
G37*
G36*
X008747Y023363D02*
X008678Y023294D01*
X008123Y023849D01*
X008192Y023918D01*
X008747Y023363D01*
G37*
G36*
X008886Y023502D02*
X008817Y023433D01*
X008262Y023988D01*
X008331Y024057D01*
X008886Y023502D01*
G37*
G36*
X009025Y023641D02*
X008956Y023572D01*
X008401Y024127D01*
X008470Y024196D01*
X009025Y023641D01*
G37*
G36*
X009165Y023780D02*
X009096Y023711D01*
X008541Y024266D01*
X008610Y024335D01*
X009165Y023780D01*
G37*
G36*
X009304Y023920D02*
X009235Y023851D01*
X008680Y024406D01*
X008749Y024475D01*
X009304Y023920D01*
G37*
G36*
X009443Y024059D02*
X009374Y023990D01*
X008819Y024545D01*
X008888Y024614D01*
X009443Y024059D01*
G37*
G36*
X009582Y024198D02*
X009513Y024129D01*
X008958Y024684D01*
X009027Y024753D01*
X009582Y024198D01*
G37*
G36*
X009721Y024337D02*
X009652Y024268D01*
X009097Y024823D01*
X009166Y024892D01*
X009721Y024337D01*
G37*
G36*
X009861Y024476D02*
X009792Y024407D01*
X009237Y024962D01*
X009306Y025031D01*
X009861Y024476D01*
G37*
G36*
X010000Y024616D02*
X009931Y024547D01*
X009376Y025102D01*
X009445Y025171D01*
X010000Y024616D01*
G37*
G36*
X010139Y024755D02*
X010070Y024686D01*
X009515Y025241D01*
X009584Y025310D01*
X010139Y024755D01*
G37*
G36*
X010278Y024894D02*
X010209Y024825D01*
X009654Y025380D01*
X009723Y025449D01*
X010278Y024894D01*
G37*
G36*
X010417Y025033D02*
X010348Y024964D01*
X009793Y025519D01*
X009862Y025588D01*
X010417Y025033D01*
G37*
G36*
X010556Y025172D02*
X010487Y025103D01*
X009932Y025658D01*
X010001Y025727D01*
X010556Y025172D01*
G37*
G36*
X010696Y025312D02*
X010627Y025243D01*
X010072Y025798D01*
X010141Y025867D01*
X010696Y025312D01*
G37*
D27*
G36*
X011531Y025798D02*
X010976Y025243D01*
X010907Y025312D01*
X011462Y025867D01*
X011531Y025798D01*
G37*
G36*
X011670Y025658D02*
X011115Y025103D01*
X011046Y025172D01*
X011601Y025727D01*
X011670Y025658D01*
G37*
G36*
X011809Y025519D02*
X011254Y024964D01*
X011185Y025033D01*
X011740Y025588D01*
X011809Y025519D01*
G37*
G36*
X011948Y025380D02*
X011393Y024825D01*
X011324Y024894D01*
X011879Y025449D01*
X011948Y025380D01*
G37*
G36*
X012088Y025241D02*
X011533Y024686D01*
X011464Y024755D01*
X012019Y025310D01*
X012088Y025241D01*
G37*
G36*
X012227Y025102D02*
X011672Y024547D01*
X011603Y024616D01*
X012158Y025171D01*
X012227Y025102D01*
G37*
G36*
X012366Y024962D02*
X011811Y024407D01*
X011742Y024476D01*
X012297Y025031D01*
X012366Y024962D01*
G37*
G36*
X012505Y024823D02*
X011950Y024268D01*
X011881Y024337D01*
X012436Y024892D01*
X012505Y024823D01*
G37*
G36*
X012644Y024684D02*
X012089Y024129D01*
X012020Y024198D01*
X012575Y024753D01*
X012644Y024684D01*
G37*
G36*
X012784Y024545D02*
X012229Y023990D01*
X012160Y024059D01*
X012715Y024614D01*
X012784Y024545D01*
G37*
G36*
X012923Y024406D02*
X012368Y023851D01*
X012299Y023920D01*
X012854Y024475D01*
X012923Y024406D01*
G37*
G36*
X013062Y024266D02*
X012507Y023711D01*
X012438Y023780D01*
X012993Y024335D01*
X013062Y024266D01*
G37*
G36*
X013201Y024127D02*
X012646Y023572D01*
X012577Y023641D01*
X013132Y024196D01*
X013201Y024127D01*
G37*
G36*
X013340Y023988D02*
X012785Y023433D01*
X012716Y023502D01*
X013271Y024057D01*
X013340Y023988D01*
G37*
G36*
X013480Y023849D02*
X012925Y023294D01*
X012856Y023363D01*
X013411Y023918D01*
X013480Y023849D01*
G37*
G36*
X013619Y023710D02*
X013064Y023155D01*
X012995Y023224D01*
X013550Y023779D01*
X013619Y023710D01*
G37*
G36*
X013758Y023570D02*
X013203Y023015D01*
X013134Y023084D01*
X013689Y023639D01*
X013758Y023570D01*
G37*
G36*
X013897Y023431D02*
X013342Y022876D01*
X013273Y022945D01*
X013828Y023500D01*
X013897Y023431D01*
G37*
G36*
X014036Y023292D02*
X013481Y022737D01*
X013412Y022806D01*
X013967Y023361D01*
X014036Y023292D01*
G37*
G36*
X014176Y023153D02*
X013621Y022598D01*
X013552Y022667D01*
X014107Y023222D01*
X014176Y023153D01*
G37*
G36*
X014315Y023014D02*
X013760Y022459D01*
X013691Y022528D01*
X014246Y023083D01*
X014315Y023014D01*
G37*
G36*
X014454Y022874D02*
X013899Y022319D01*
X013830Y022388D01*
X014385Y022943D01*
X014454Y022874D01*
G37*
G36*
X014593Y022735D02*
X014038Y022180D01*
X013969Y022249D01*
X014524Y022804D01*
X014593Y022735D01*
G37*
G36*
X014732Y022596D02*
X014177Y022041D01*
X014108Y022110D01*
X014663Y022665D01*
X014732Y022596D01*
G37*
G36*
X014872Y022457D02*
X014317Y021902D01*
X014248Y021971D01*
X014803Y022526D01*
X014872Y022457D01*
G37*
G36*
X010696Y018281D02*
X010141Y017726D01*
X010072Y017795D01*
X010627Y018350D01*
X010696Y018281D01*
G37*
G36*
X010556Y018420D02*
X010001Y017865D01*
X009932Y017934D01*
X010487Y018489D01*
X010556Y018420D01*
G37*
G36*
X010417Y018559D02*
X009862Y018004D01*
X009793Y018073D01*
X010348Y018628D01*
X010417Y018559D01*
G37*
G36*
X010278Y018699D02*
X009723Y018144D01*
X009654Y018213D01*
X010209Y018768D01*
X010278Y018699D01*
G37*
G36*
X010139Y018838D02*
X009584Y018283D01*
X009515Y018352D01*
X010070Y018907D01*
X010139Y018838D01*
G37*
G36*
X010000Y018977D02*
X009445Y018422D01*
X009376Y018491D01*
X009931Y019046D01*
X010000Y018977D01*
G37*
G36*
X009861Y019116D02*
X009306Y018561D01*
X009237Y018630D01*
X009792Y019185D01*
X009861Y019116D01*
G37*
G36*
X009721Y019255D02*
X009166Y018700D01*
X009097Y018769D01*
X009652Y019324D01*
X009721Y019255D01*
G37*
G36*
X009582Y019395D02*
X009027Y018840D01*
X008958Y018909D01*
X009513Y019464D01*
X009582Y019395D01*
G37*
G36*
X009443Y019534D02*
X008888Y018979D01*
X008819Y019048D01*
X009374Y019603D01*
X009443Y019534D01*
G37*
G36*
X009304Y019673D02*
X008749Y019118D01*
X008680Y019187D01*
X009235Y019742D01*
X009304Y019673D01*
G37*
G36*
X009165Y019812D02*
X008610Y019257D01*
X008541Y019326D01*
X009096Y019881D01*
X009165Y019812D01*
G37*
G36*
X009025Y019951D02*
X008470Y019396D01*
X008401Y019465D01*
X008956Y020020D01*
X009025Y019951D01*
G37*
G36*
X008886Y020091D02*
X008331Y019536D01*
X008262Y019605D01*
X008817Y020160D01*
X008886Y020091D01*
G37*
G36*
X008747Y020230D02*
X008192Y019675D01*
X008123Y019744D01*
X008678Y020299D01*
X008747Y020230D01*
G37*
G36*
X008608Y020369D02*
X008053Y019814D01*
X007984Y019883D01*
X008539Y020438D01*
X008608Y020369D01*
G37*
G36*
X008469Y020508D02*
X007914Y019953D01*
X007845Y020022D01*
X008400Y020577D01*
X008469Y020508D01*
G37*
G36*
X008329Y020647D02*
X007774Y020092D01*
X007705Y020161D01*
X008260Y020716D01*
X008329Y020647D01*
G37*
G36*
X008190Y020787D02*
X007635Y020232D01*
X007566Y020301D01*
X008121Y020856D01*
X008190Y020787D01*
G37*
G36*
X008051Y020926D02*
X007496Y020371D01*
X007427Y020440D01*
X007982Y020995D01*
X008051Y020926D01*
G37*
G36*
X007912Y021065D02*
X007357Y020510D01*
X007288Y020579D01*
X007843Y021134D01*
X007912Y021065D01*
G37*
G36*
X007773Y021204D02*
X007218Y020649D01*
X007149Y020718D01*
X007704Y021273D01*
X007773Y021204D01*
G37*
G36*
X007633Y021343D02*
X007078Y020788D01*
X007009Y020857D01*
X007564Y021412D01*
X007633Y021343D01*
G37*
G36*
X007494Y021482D02*
X006939Y020927D01*
X006870Y020996D01*
X007425Y021551D01*
X007494Y021482D01*
G37*
G36*
X007355Y021622D02*
X006800Y021067D01*
X006731Y021136D01*
X007286Y021691D01*
X007355Y021622D01*
G37*
D28*
X005623Y021289D03*
X005623Y020588D03*
D29*
X003012Y020867D03*
X001043Y020867D03*
X029471Y030383D03*
X031439Y030383D03*
D30*
X032172Y017810D03*
X032172Y016707D03*
D31*
X018507Y039191D03*
X017759Y039191D03*
X018133Y040057D03*
X006723Y027413D03*
X007097Y026547D03*
X006349Y026547D03*
D32*
X006254Y025736D03*
X006254Y024536D03*
X004054Y024536D03*
X004054Y025736D03*
D33*
X014963Y019439D03*
X015553Y019439D03*
X020023Y039329D03*
X020023Y039919D03*
D34*
X027095Y020438D03*
X027095Y019690D03*
X028119Y019690D03*
X028119Y020064D03*
X028119Y020438D03*
D35*
X027070Y019027D03*
X027070Y017768D03*
X025491Y019385D03*
X024307Y019374D03*
X024307Y020633D03*
X025491Y020645D03*
D36*
X028549Y021068D03*
X030046Y021068D03*
D37*
X027934Y021200D03*
X027233Y021200D03*
D38*
X023486Y022796D03*
X023486Y023052D03*
X023486Y023308D03*
X023486Y023564D03*
X022029Y023564D03*
X022029Y023308D03*
X022029Y023052D03*
X022029Y022796D03*
D39*
X022373Y022452D03*
X022629Y022452D03*
X022885Y022452D03*
X023141Y022452D03*
X023141Y023909D03*
X022885Y023909D03*
X022629Y023909D03*
X022373Y023909D03*
D40*
X003263Y019596D03*
X003263Y018686D03*
X003263Y017776D03*
D41*
X000822Y018686D03*
D42*
X007582Y007892D03*
X008841Y007892D03*
X020810Y019703D03*
X022070Y019703D03*
X026584Y023139D03*
X027844Y023139D03*
X029705Y018615D03*
X030965Y018615D03*
D43*
X019521Y020661D03*
X018734Y021035D03*
X018734Y020287D03*
D44*
X020075Y021398D03*
X020823Y021398D03*
X020449Y020572D03*
D45*
X007783Y025419D03*
X007310Y025419D03*
X006838Y025419D03*
D46*
X001952Y030726D03*
X001952Y031041D03*
X001952Y031356D03*
X001952Y031671D03*
X001952Y031986D03*
X001952Y032301D03*
X001086Y032301D03*
X001086Y031986D03*
X001086Y031671D03*
X001086Y031356D03*
X001086Y031041D03*
X001086Y030726D03*
X043211Y030648D03*
X043211Y030963D03*
X043211Y031277D03*
X043211Y031592D03*
X043211Y031907D03*
X043211Y032222D03*
X044078Y032222D03*
X044078Y031907D03*
X044078Y031592D03*
X044078Y031277D03*
X044078Y030963D03*
X044078Y030648D03*
D47*
X043645Y030608D03*
X043645Y032262D03*
X001519Y032340D03*
X001519Y030687D03*
D48*
X026430Y032380D03*
X026430Y034348D03*
X028418Y034348D03*
X028418Y032380D03*
X035958Y008915D03*
X037946Y008915D03*
D49*
X036553Y022920D03*
X036297Y022920D03*
X036041Y022920D03*
X035785Y022920D03*
X035529Y022920D03*
X035273Y022920D03*
X035018Y022920D03*
X034762Y022920D03*
X034506Y022920D03*
X034250Y022920D03*
X034250Y025217D03*
X034506Y025217D03*
X034762Y025217D03*
X035018Y025217D03*
X035273Y025217D03*
X035529Y025217D03*
X035785Y025217D03*
X036041Y025217D03*
X036297Y025217D03*
X036553Y025217D03*
M02*
