%
M48
M72
T01C0.0079
T02C0.0236
T03C0.0240
T04C0.0295
T05C0.0320
T06C0.0360
T07C0.0394
T08C0.0400
T09C0.0413
T10C0.0440
T11C0.0550
T12C0.0551
T13C0.0910
T14C0.1260
%
T01
X37860Y31433
X37820Y30179
X38399Y30257
X14842Y19036
X43150Y27346
X4531Y11537
X9197Y19084
X12718Y20011
X6704Y12679
X11047Y21540
X8120Y20225
X8174Y18091
X8812Y20751
X26871Y14895
X28911Y13886
X23411Y13834
X25884Y15227
X14378Y19278
X13396Y17733
X17987Y14988
X11775Y19022
X29509Y14919
X12646Y17514
X11199Y18462
X14772Y16203
X11596Y15722
X14370Y18590
X13824Y16720
X13692Y15593
X11015Y20747
X9084Y17046
X11294Y20172
X10411Y20149
X10780Y19453
X9270Y16461
X13704Y13614
X14337Y13528
X11884Y14987
X20254Y30386
X25374Y15984
X13378Y18318
X19447Y30075
X19640Y30892
X15065Y25186
X14625Y19781
X15978Y27423
X19492Y29693
X13146Y16199
X10089Y17003
X17314Y15818
X19826Y29935
X18481Y25532
X18035Y22845
X35469Y26136
X40425Y30852
X36679Y27712
X35081Y27175
X35201Y27708
X9507Y27881
X9656Y27246
X10792Y25712
X6525Y23442
X7356Y23304
X5337Y25107
X5969Y26363
X12747Y25942
X14242Y23035
X22753Y24119
X19829Y23768
X10467Y21706
X11319Y22254
X11844Y22081
X12971Y23725
X14872Y20158
X16505Y20448
X12348Y20303
X14378Y20927
X16717Y20705
X20341Y17856
X23406Y15984
X12444Y20740
X12328Y21967
X8610Y22014
X8695Y22387
X8604Y23989
X13428Y24625
X11905Y20574
X9394Y21414
X7939Y21532
X15205Y18472
X14932Y17593
X26196Y15555
X26188Y18479
X29143Y18626
X9228Y22645
X13290Y23795
X13742Y23939
X19918Y17383
X25177Y16929
X14714Y22210
X15872Y22210
X25474Y17574
X6863Y21334
X8661Y17017
X29469Y13238
X35369Y13994
X7459Y20913
X13225Y21103
X12637Y21287
X13782Y22810
X17248Y22089
X12871Y21900
X11995Y16307
X10661Y17878
X10391Y18445
X11777Y17061
X9829Y19548
X12875Y15403
X9906Y26528
X12320Y26291
X10334Y24039
X19453Y39298
X16054Y18583
X16210Y19301
X15949Y17594
X16187Y17156
X9786Y23196
X5700Y29120
X12590Y26531
X17386Y27180
X33006Y27180
X11561Y24986
X13443Y25531
X14130Y24841
X11044Y23902
X13111Y24255
X9749Y25456
X11616Y23377
X11323Y22850
X10714Y22330
X1333Y31916
X11002Y24786
X13283Y25221
X9853Y26941
X15870Y15473
X14230Y15566
X12507Y15960
X8023Y18465
X6733Y19914
X43877Y31438
X43898Y29843
X6543Y26608
X14498Y18074
X10557Y21382
X12172Y22579
X16529Y23663
X35590Y25568
X32744Y26799
X19245Y26799
X13340Y26794
X9504Y25934
X9083Y24824
X12665Y25606
X19823Y39134
X20185Y18482
X35371Y13080
X41043Y27359
X15218Y22529
T02
X37953Y26142
X39291Y27402
X39528Y28976
X40787Y28976
X40630Y26378
X28425Y15984
X27638Y18110
X27638Y17165
X23228Y18110
X18189Y18031
X17087Y19921
X8898Y12441
X8898Y11969
X8898Y11496
X4882Y24331
X11890Y27244
X15827Y26063
X28346Y26063
X30551Y25669
X38189Y20787
X38268Y19764
X41417Y16772
X41417Y17717
X41417Y18661
X41417Y19764
X41417Y20787
X2992Y30157
X3543Y28583
X8110Y27874
X14094Y27638
X8268Y16142
X9134Y15591
X12677Y13622
X10945Y15669
X31969Y12126
T03
X8031Y14016
X43799Y32283
X1732Y32765
X18515Y22925
X22395Y16063
X20643Y20593
X24127Y19828
X42339Y2400
X25311Y19840
X19341Y19856
X43130Y32283
X35709Y34097
X24193Y15984
X8383Y25502
X15748Y24075
X42074Y9115
X3045Y8542
X7227Y12725
X35669Y9171
T04
X41945Y3849
T05
X12126Y8976
X14488Y10551
X11339Y10551
X13701Y9764
X13701Y8976
X12126Y10551
X12913Y8976
X14488Y9764
X12913Y10551
X11339Y9764
X12126Y9764
X11339Y8976
X13701Y10551
X12913Y9764
X14488Y8976
X28898Y8976
X26535Y10551
X29685Y9764
X28110Y9764
X29685Y8976
X26535Y8976
X27323Y9764
X28898Y9764
X28110Y10551
X29685Y10551
X28898Y10551
X28110Y8976
X27323Y10551
X26535Y9764
X27323Y8976
X25748Y6220
X27323Y7008
X26535Y7795
X25748Y7795
X26535Y6220
X27323Y7795
X27323Y6220
X26535Y7008
X25748Y7008
X28898Y7795
X28898Y7008
X28898Y6220
X30472Y6220
X30472Y7795
X29685Y6220
X29685Y7795
X29685Y7008
X30472Y7008
X11339Y7008
X11339Y6220
X10551Y7795
X10551Y7008
X12126Y7008
X11339Y7795
X12126Y6220
X12126Y7795
X10551Y6220
X13701Y6220
X14488Y7795
X15276Y7795
X14488Y6220
X14488Y7008
X15276Y7008
X13701Y7795
X13701Y7008
X15276Y6220
T06
X8681Y6253
X8681Y5253
X890Y21969
X1890Y21969
X2890Y21969
X3780Y35748
X27282Y2801
X29299Y36343
X30980Y31944
X11069Y35838
X7673Y32633
X28898Y2835
X15748Y21260
X28268Y21260
X33386Y9235
X24679Y35657
X4349Y6494
X1563Y5512
X23175Y32736
X12063Y2830
X11077Y38927
X20072Y35668
X44094Y36772
X13742Y2781
X7795Y10315
X18346Y32520
T07
X8632Y8661
X6650Y10456
X1772Y30551
X41772Y27362
X7238Y25720
X17143Y17793
X7008Y28642
X28238Y31575
X7402Y7087
X43898Y30472
X36525Y33936
X20341Y27615
X21890Y18898
X28238Y33543
X27664Y22334
X4220Y13334
X30785Y17810
X19862Y15984
X8386Y30866
X863Y20062
X6644Y14012
X3438Y12609
X42477Y9703
X42319Y8007
X3764Y20079
X17511Y28340
X23306Y22247
X30298Y16763
X31700Y17535
X33872Y24610
X38661Y34203
X5263Y7475
X5299Y6007
X7334Y17784
X2926Y7623
X3219Y10211
X3605Y17852
X5880Y17624
X642Y17881
X26548Y20396
X5443Y20484
X22205Y21654
X10269Y15253
X14890Y26340
X16167Y15018
X24019Y22741
X3083Y16971
X22123Y30021
X32814Y15944
X34747Y9093
X36220Y23834
X19010Y21039
X21440Y21189
X17852Y18751
X18295Y20218
X21321Y28531
X26220Y31563
X28268Y24075
X29291Y29578
X18169Y27930
X1955Y20590
X4531Y11037
X26220Y32547
T08
X40211Y25763
X39211Y25763
X40211Y24763
X39211Y24763
X40211Y23763
X39211Y23763
X40211Y22763
X39211Y22763
X40211Y21763
X39211Y21763
X40211Y20763
X39211Y20763
X40211Y19763
X39211Y19763
X40211Y18763
X39211Y18763
X40211Y17763
X39211Y17763
X40211Y16763
X39211Y16763
X40211Y15763
X39211Y15763
X40211Y14763
X39211Y14763
X40211Y13763
X39211Y13763
X40211Y12763
X39211Y12763
X43237Y25763
X42237Y25763
X43237Y24763
X42237Y24763
X43237Y23763
X42237Y23763
X43237Y22763
X42237Y22763
X43237Y21763
X42237Y21763
X43237Y20763
X42237Y20763
X43237Y19763
X42237Y19763
X43237Y18763
X42237Y18763
X43237Y17763
X42237Y17763
X43237Y16763
X42237Y16763
X43237Y15763
X42237Y15763
X43237Y14763
X42237Y14763
X43237Y13763
X42237Y13763
X43237Y12763
X42237Y12763
X5446Y27646
X4446Y27646
X5446Y28646
X4446Y28646
X5446Y29646
X4446Y29646
X5446Y30646
X4446Y30646
X5446Y31646
X4446Y31646
X5446Y32646
X4446Y32646
X5446Y33646
X4446Y33646
X8950Y36019
X7950Y36019
X6950Y36019
X5950Y36019
T09
X40885Y2797
T10
X23912Y38596
X20607Y38529
T11
X25979Y1814
X30204Y1892
X10759Y1903
X15153Y1903
X12925Y1180
X20514Y11497
X28110Y1181
T12
X41063Y36299
X31614Y36299
T13
X38988Y36323
X33818Y36323
T14
X1500Y1500
X43500Y1412
X43500Y38588
X1412Y38500
X43500Y28500
X15351Y28500
X965Y25693
X1052Y35605
M30
