G75*
G70*
%OFA0B0*%
%FSLAX24Y24*%
%IPPOS*%
%LPD*%
%AMOC8*
5,1,8,0,0,1.08239X$1,22.5*
%
%ADD10R,0.0866X0.0236*%
%ADD11R,0.0512X0.0630*%
%ADD12R,0.0630X0.0512*%
%ADD13R,0.0591X0.0512*%
%ADD14R,0.0512X0.0591*%
%ADD15R,0.0846X0.2165*%
%ADD16R,0.0551X0.0394*%
%ADD17C,0.0236*%
%ADD18R,0.0200X0.0787*%
%ADD19R,0.0197X0.0787*%
%ADD20R,0.0394X0.0433*%
%ADD21R,0.0354X0.1181*%
%ADD22R,0.0630X0.1063*%
%ADD23R,0.0433X0.0394*%
%ADD24R,0.0098X0.0787*%
%ADD25R,0.0787X0.0098*%
%ADD26R,0.0701X0.0402*%
%ADD27R,0.0945X0.0945*%
%ADD28R,0.1063X0.0630*%
%ADD29R,0.0394X0.0551*%
%ADD30R,0.0500X0.0740*%
%ADD31R,0.0315X0.0315*%
%ADD32R,0.0472X0.0217*%
%ADD33R,0.0787X0.0472*%
%ADD34R,0.0551X0.0551*%
%ADD35R,0.0402X0.0701*%
%ADD36R,0.0394X0.0157*%
%ADD37R,0.0157X0.0394*%
%ADD38R,0.0880X0.0480*%
%ADD39R,0.0866X0.1417*%
%ADD40R,0.0472X0.0787*%
%ADD41R,0.0354X0.0315*%
%ADD42R,0.0315X0.0354*%
%ADD43R,0.0276X0.0669*%
%ADD44R,0.0472X0.0197*%
%ADD45R,0.0197X0.0472*%
%ADD46R,0.1004X0.0984*%
%ADD47R,0.0120X0.0390*%
D10*
X004711Y011342D03*
X004711Y011842D03*
X004711Y012342D03*
X004711Y012842D03*
X006759Y012842D03*
X006759Y012342D03*
X006759Y011842D03*
X006759Y011342D03*
X019290Y032579D03*
X019290Y033079D03*
X019290Y033579D03*
X019290Y034079D03*
X021337Y034079D03*
X021337Y033579D03*
X021337Y033079D03*
X021337Y032579D03*
X035849Y011476D03*
X035849Y010976D03*
X035849Y010476D03*
X035849Y009976D03*
X038674Y009976D03*
X038674Y010476D03*
X038674Y010976D03*
X038674Y011476D03*
D11*
X006473Y010514D03*
X005686Y010514D03*
X004406Y013414D03*
X003618Y013414D03*
X005232Y013612D03*
X006020Y013612D03*
D12*
X004400Y014139D03*
X004400Y014927D03*
X006070Y022205D03*
X006070Y022992D03*
D13*
X006821Y014281D03*
X006821Y013611D03*
X003614Y012347D03*
X003614Y011678D03*
X007739Y006927D03*
X007739Y006179D03*
D14*
X005479Y007352D03*
X006149Y007352D03*
X007695Y012848D03*
X008364Y012848D03*
D15*
X008802Y009474D03*
X007290Y009474D03*
D16*
X006309Y008654D03*
X005443Y008280D03*
X005443Y009028D03*
X024104Y017738D03*
X024970Y017364D03*
X024970Y018112D03*
D17*
X026705Y011341D03*
X026705Y010554D03*
X027492Y010554D03*
X027492Y011341D03*
X028279Y011341D03*
X028279Y010554D03*
X028279Y009766D03*
X027492Y009766D03*
X026705Y009766D03*
X026705Y008585D03*
X027492Y008585D03*
X027492Y007798D03*
X027492Y007011D03*
X026705Y007011D03*
X026705Y007798D03*
X025917Y007798D03*
X025917Y007011D03*
X025917Y008585D03*
X029067Y008585D03*
X029067Y007798D03*
X029067Y007011D03*
X029854Y007011D03*
X029854Y007798D03*
X030642Y007798D03*
X030642Y007011D03*
X030642Y008585D03*
X029854Y008585D03*
X029854Y009766D03*
X029067Y009766D03*
X029067Y010554D03*
X029067Y011341D03*
X029854Y011341D03*
X029854Y010554D03*
X015459Y008590D03*
X014672Y008590D03*
X013884Y008590D03*
X013884Y007802D03*
X013884Y007015D03*
X014672Y007015D03*
X014672Y007802D03*
X015459Y007802D03*
X015459Y007015D03*
X014672Y009771D03*
X014672Y010558D03*
X014672Y011346D03*
X013884Y011346D03*
X013097Y011346D03*
X013097Y010558D03*
X013884Y010558D03*
X013884Y009771D03*
X013097Y009771D03*
X012310Y009771D03*
X012310Y010558D03*
X012310Y011346D03*
X011522Y011346D03*
X011522Y010558D03*
X011522Y009771D03*
X011522Y008590D03*
X010735Y008590D03*
X010735Y007802D03*
X011522Y007802D03*
X011522Y007015D03*
X010735Y007015D03*
X012310Y007015D03*
X012310Y007802D03*
X012310Y008590D03*
D18*
X012703Y005637D03*
X011916Y005637D03*
X011522Y005637D03*
X011128Y005637D03*
X010735Y005637D03*
X013491Y005637D03*
X014278Y005637D03*
X014672Y005637D03*
X015065Y005637D03*
X015459Y005637D03*
X015459Y012723D03*
X014672Y012723D03*
X014278Y012723D03*
X013884Y012723D03*
X013491Y012723D03*
X013097Y012723D03*
X012703Y012723D03*
X012310Y012723D03*
X011916Y012723D03*
X011522Y012723D03*
X010735Y012723D03*
X025917Y012719D03*
X026705Y012719D03*
X027098Y012719D03*
X027492Y012719D03*
X027886Y012719D03*
X028279Y012719D03*
X028673Y012719D03*
X029067Y012719D03*
X029461Y012719D03*
X029854Y012719D03*
X030642Y012719D03*
X030642Y005633D03*
X030248Y005633D03*
X029854Y005633D03*
X029461Y005633D03*
X028673Y005633D03*
X027886Y005633D03*
X027098Y005633D03*
X026705Y005633D03*
X026311Y005633D03*
X025917Y005633D03*
D19*
X025524Y005635D03*
X027492Y005635D03*
X028279Y005635D03*
X029067Y005635D03*
X031035Y005635D03*
X031035Y012717D03*
X030248Y012717D03*
X026311Y012717D03*
X025524Y012717D03*
X015853Y012721D03*
X015065Y012721D03*
X011128Y012721D03*
X010341Y012721D03*
X010341Y005639D03*
X012310Y005639D03*
X013097Y005639D03*
X013884Y005639D03*
X015853Y005639D03*
D20*
X010205Y013987D03*
X009536Y013987D03*
X009694Y015116D03*
X008911Y015113D03*
X008911Y015782D03*
X009694Y015785D03*
X010481Y015788D03*
X010481Y015119D03*
X011276Y015118D03*
X012064Y015123D03*
X012064Y015792D03*
X011276Y015787D03*
X012817Y015783D03*
X012817Y015114D03*
X013595Y015098D03*
X014392Y015098D03*
X014392Y015768D03*
X013595Y015767D03*
X015252Y015741D03*
X015252Y015072D03*
X015938Y015048D03*
X015938Y015717D03*
X016755Y015729D03*
X016755Y015059D03*
X019541Y017643D03*
X019541Y018312D03*
X017738Y018571D03*
X017738Y019241D03*
X017987Y020326D03*
X017987Y020996D03*
X021645Y020969D03*
X021645Y021638D03*
X022563Y021626D03*
X022563Y020957D03*
X023435Y020963D03*
X023435Y021633D03*
X024199Y022877D03*
X024199Y023546D03*
X024191Y024139D03*
X024191Y024809D03*
X028876Y020150D03*
X028876Y019481D03*
X029975Y017606D03*
X029975Y016936D03*
X030981Y016952D03*
X030981Y017621D03*
X030129Y015623D03*
X030129Y014954D03*
X029249Y014905D03*
X029249Y015575D03*
X028375Y015538D03*
X028375Y014869D03*
X027487Y014829D03*
X027487Y015499D03*
X026588Y015488D03*
X026588Y014819D03*
X025733Y014796D03*
X025733Y015465D03*
X024874Y015488D03*
X024874Y014818D03*
X024018Y014833D03*
X024018Y015503D03*
X023164Y015500D03*
X023164Y014831D03*
X027042Y016317D03*
X027042Y016987D03*
X034904Y010982D03*
X034904Y010313D03*
X039708Y010943D03*
X039708Y011612D03*
X040554Y028128D03*
X041223Y028128D03*
X042661Y028151D03*
X043330Y028151D03*
X019235Y039289D03*
X019235Y039959D03*
X006873Y029446D03*
X006204Y029446D03*
X001912Y032911D03*
X001912Y033581D03*
X005518Y023711D03*
X006188Y023711D03*
X004242Y019780D03*
X004242Y019111D03*
X004257Y018489D03*
X004257Y017820D03*
X006088Y017496D03*
X006088Y018165D03*
X007622Y018976D03*
X007622Y019645D03*
X014019Y026474D03*
X014688Y026474D03*
X014688Y027183D03*
X014019Y027183D03*
D21*
X035402Y035770D03*
X036190Y035770D03*
X036977Y035770D03*
X037765Y035770D03*
D22*
X023333Y033534D03*
X022230Y033534D03*
X021912Y039388D03*
X023015Y039388D03*
D23*
X008502Y027599D03*
X007833Y027599D03*
X007822Y026738D03*
X008491Y026738D03*
X008603Y025886D03*
X008603Y025216D03*
X005558Y026612D03*
X005558Y027281D03*
X005995Y019840D03*
X005963Y019308D03*
X006632Y019308D03*
X006664Y019840D03*
X006734Y018102D03*
X006734Y017433D03*
X004324Y010409D03*
X003655Y010409D03*
X014929Y017987D03*
X015598Y017987D03*
X015635Y018799D03*
X014966Y018799D03*
X016381Y018679D03*
X017050Y018679D03*
X017036Y017961D03*
X016367Y017961D03*
X016381Y019388D03*
X017050Y019388D03*
X017059Y020106D03*
X016390Y020106D03*
X016263Y020726D03*
X015593Y020726D03*
X020831Y022390D03*
X021501Y022390D03*
X022676Y020174D03*
X023345Y020174D03*
X026917Y022095D03*
X027586Y022095D03*
X029646Y020326D03*
X030315Y020326D03*
X030297Y019538D03*
X029628Y019538D03*
X022487Y012282D03*
X021818Y012282D03*
X038664Y012222D03*
X039334Y012222D03*
X043310Y033089D03*
X043979Y033089D03*
D24*
G36*
X014872Y021136D02*
X014803Y021067D01*
X014248Y021622D01*
X014317Y021691D01*
X014872Y021136D01*
G37*
G36*
X014732Y020996D02*
X014663Y020927D01*
X014108Y021482D01*
X014177Y021551D01*
X014732Y020996D01*
G37*
G36*
X014593Y020857D02*
X014524Y020788D01*
X013969Y021343D01*
X014038Y021412D01*
X014593Y020857D01*
G37*
G36*
X014454Y020718D02*
X014385Y020649D01*
X013830Y021204D01*
X013899Y021273D01*
X014454Y020718D01*
G37*
G36*
X014315Y020579D02*
X014246Y020510D01*
X013691Y021065D01*
X013760Y021134D01*
X014315Y020579D01*
G37*
G36*
X014176Y020440D02*
X014107Y020371D01*
X013552Y020926D01*
X013621Y020995D01*
X014176Y020440D01*
G37*
G36*
X014036Y020301D02*
X013967Y020232D01*
X013412Y020787D01*
X013481Y020856D01*
X014036Y020301D01*
G37*
G36*
X013897Y020161D02*
X013828Y020092D01*
X013273Y020647D01*
X013342Y020716D01*
X013897Y020161D01*
G37*
G36*
X013758Y020022D02*
X013689Y019953D01*
X013134Y020508D01*
X013203Y020577D01*
X013758Y020022D01*
G37*
G36*
X013619Y019883D02*
X013550Y019814D01*
X012995Y020369D01*
X013064Y020438D01*
X013619Y019883D01*
G37*
G36*
X013480Y019744D02*
X013411Y019675D01*
X012856Y020230D01*
X012925Y020299D01*
X013480Y019744D01*
G37*
G36*
X013340Y019605D02*
X013271Y019536D01*
X012716Y020091D01*
X012785Y020160D01*
X013340Y019605D01*
G37*
G36*
X013201Y019465D02*
X013132Y019396D01*
X012577Y019951D01*
X012646Y020020D01*
X013201Y019465D01*
G37*
G36*
X013062Y019326D02*
X012993Y019257D01*
X012438Y019812D01*
X012507Y019881D01*
X013062Y019326D01*
G37*
G36*
X012923Y019187D02*
X012854Y019118D01*
X012299Y019673D01*
X012368Y019742D01*
X012923Y019187D01*
G37*
G36*
X012784Y019048D02*
X012715Y018979D01*
X012160Y019534D01*
X012229Y019603D01*
X012784Y019048D01*
G37*
G36*
X012644Y018909D02*
X012575Y018840D01*
X012020Y019395D01*
X012089Y019464D01*
X012644Y018909D01*
G37*
G36*
X012505Y018769D02*
X012436Y018700D01*
X011881Y019255D01*
X011950Y019324D01*
X012505Y018769D01*
G37*
G36*
X012366Y018630D02*
X012297Y018561D01*
X011742Y019116D01*
X011811Y019185D01*
X012366Y018630D01*
G37*
G36*
X012227Y018491D02*
X012158Y018422D01*
X011603Y018977D01*
X011672Y019046D01*
X012227Y018491D01*
G37*
G36*
X012088Y018352D02*
X012019Y018283D01*
X011464Y018838D01*
X011533Y018907D01*
X012088Y018352D01*
G37*
G36*
X011948Y018213D02*
X011879Y018144D01*
X011324Y018699D01*
X011393Y018768D01*
X011948Y018213D01*
G37*
G36*
X011809Y018073D02*
X011740Y018004D01*
X011185Y018559D01*
X011254Y018628D01*
X011809Y018073D01*
G37*
G36*
X011670Y017934D02*
X011601Y017865D01*
X011046Y018420D01*
X011115Y018489D01*
X011670Y017934D01*
G37*
G36*
X011531Y017795D02*
X011462Y017726D01*
X010907Y018281D01*
X010976Y018350D01*
X011531Y017795D01*
G37*
G36*
X007355Y021971D02*
X007286Y021902D01*
X006731Y022457D01*
X006800Y022526D01*
X007355Y021971D01*
G37*
G36*
X007494Y022110D02*
X007425Y022041D01*
X006870Y022596D01*
X006939Y022665D01*
X007494Y022110D01*
G37*
G36*
X007633Y022249D02*
X007564Y022180D01*
X007009Y022735D01*
X007078Y022804D01*
X007633Y022249D01*
G37*
G36*
X007773Y022388D02*
X007704Y022319D01*
X007149Y022874D01*
X007218Y022943D01*
X007773Y022388D01*
G37*
G36*
X007912Y022528D02*
X007843Y022459D01*
X007288Y023014D01*
X007357Y023083D01*
X007912Y022528D01*
G37*
G36*
X008051Y022667D02*
X007982Y022598D01*
X007427Y023153D01*
X007496Y023222D01*
X008051Y022667D01*
G37*
G36*
X008190Y022806D02*
X008121Y022737D01*
X007566Y023292D01*
X007635Y023361D01*
X008190Y022806D01*
G37*
G36*
X008329Y022945D02*
X008260Y022876D01*
X007705Y023431D01*
X007774Y023500D01*
X008329Y022945D01*
G37*
G36*
X008469Y023084D02*
X008400Y023015D01*
X007845Y023570D01*
X007914Y023639D01*
X008469Y023084D01*
G37*
G36*
X008608Y023224D02*
X008539Y023155D01*
X007984Y023710D01*
X008053Y023779D01*
X008608Y023224D01*
G37*
G36*
X008747Y023363D02*
X008678Y023294D01*
X008123Y023849D01*
X008192Y023918D01*
X008747Y023363D01*
G37*
G36*
X008886Y023502D02*
X008817Y023433D01*
X008262Y023988D01*
X008331Y024057D01*
X008886Y023502D01*
G37*
G36*
X009025Y023641D02*
X008956Y023572D01*
X008401Y024127D01*
X008470Y024196D01*
X009025Y023641D01*
G37*
G36*
X009165Y023780D02*
X009096Y023711D01*
X008541Y024266D01*
X008610Y024335D01*
X009165Y023780D01*
G37*
G36*
X009304Y023920D02*
X009235Y023851D01*
X008680Y024406D01*
X008749Y024475D01*
X009304Y023920D01*
G37*
G36*
X009443Y024059D02*
X009374Y023990D01*
X008819Y024545D01*
X008888Y024614D01*
X009443Y024059D01*
G37*
G36*
X009582Y024198D02*
X009513Y024129D01*
X008958Y024684D01*
X009027Y024753D01*
X009582Y024198D01*
G37*
G36*
X009721Y024337D02*
X009652Y024268D01*
X009097Y024823D01*
X009166Y024892D01*
X009721Y024337D01*
G37*
G36*
X009861Y024476D02*
X009792Y024407D01*
X009237Y024962D01*
X009306Y025031D01*
X009861Y024476D01*
G37*
G36*
X010000Y024616D02*
X009931Y024547D01*
X009376Y025102D01*
X009445Y025171D01*
X010000Y024616D01*
G37*
G36*
X010139Y024755D02*
X010070Y024686D01*
X009515Y025241D01*
X009584Y025310D01*
X010139Y024755D01*
G37*
G36*
X010278Y024894D02*
X010209Y024825D01*
X009654Y025380D01*
X009723Y025449D01*
X010278Y024894D01*
G37*
G36*
X010417Y025033D02*
X010348Y024964D01*
X009793Y025519D01*
X009862Y025588D01*
X010417Y025033D01*
G37*
G36*
X010556Y025172D02*
X010487Y025103D01*
X009932Y025658D01*
X010001Y025727D01*
X010556Y025172D01*
G37*
G36*
X010696Y025312D02*
X010627Y025243D01*
X010072Y025798D01*
X010141Y025867D01*
X010696Y025312D01*
G37*
D25*
G36*
X011531Y025798D02*
X010976Y025243D01*
X010907Y025312D01*
X011462Y025867D01*
X011531Y025798D01*
G37*
G36*
X011670Y025658D02*
X011115Y025103D01*
X011046Y025172D01*
X011601Y025727D01*
X011670Y025658D01*
G37*
G36*
X011809Y025519D02*
X011254Y024964D01*
X011185Y025033D01*
X011740Y025588D01*
X011809Y025519D01*
G37*
G36*
X011948Y025380D02*
X011393Y024825D01*
X011324Y024894D01*
X011879Y025449D01*
X011948Y025380D01*
G37*
G36*
X012088Y025241D02*
X011533Y024686D01*
X011464Y024755D01*
X012019Y025310D01*
X012088Y025241D01*
G37*
G36*
X012227Y025102D02*
X011672Y024547D01*
X011603Y024616D01*
X012158Y025171D01*
X012227Y025102D01*
G37*
G36*
X012366Y024962D02*
X011811Y024407D01*
X011742Y024476D01*
X012297Y025031D01*
X012366Y024962D01*
G37*
G36*
X012505Y024823D02*
X011950Y024268D01*
X011881Y024337D01*
X012436Y024892D01*
X012505Y024823D01*
G37*
G36*
X012644Y024684D02*
X012089Y024129D01*
X012020Y024198D01*
X012575Y024753D01*
X012644Y024684D01*
G37*
G36*
X012784Y024545D02*
X012229Y023990D01*
X012160Y024059D01*
X012715Y024614D01*
X012784Y024545D01*
G37*
G36*
X012923Y024406D02*
X012368Y023851D01*
X012299Y023920D01*
X012854Y024475D01*
X012923Y024406D01*
G37*
G36*
X013062Y024266D02*
X012507Y023711D01*
X012438Y023780D01*
X012993Y024335D01*
X013062Y024266D01*
G37*
G36*
X013201Y024127D02*
X012646Y023572D01*
X012577Y023641D01*
X013132Y024196D01*
X013201Y024127D01*
G37*
G36*
X013340Y023988D02*
X012785Y023433D01*
X012716Y023502D01*
X013271Y024057D01*
X013340Y023988D01*
G37*
G36*
X013480Y023849D02*
X012925Y023294D01*
X012856Y023363D01*
X013411Y023918D01*
X013480Y023849D01*
G37*
G36*
X013619Y023710D02*
X013064Y023155D01*
X012995Y023224D01*
X013550Y023779D01*
X013619Y023710D01*
G37*
G36*
X013758Y023570D02*
X013203Y023015D01*
X013134Y023084D01*
X013689Y023639D01*
X013758Y023570D01*
G37*
G36*
X013897Y023431D02*
X013342Y022876D01*
X013273Y022945D01*
X013828Y023500D01*
X013897Y023431D01*
G37*
G36*
X014036Y023292D02*
X013481Y022737D01*
X013412Y022806D01*
X013967Y023361D01*
X014036Y023292D01*
G37*
G36*
X014176Y023153D02*
X013621Y022598D01*
X013552Y022667D01*
X014107Y023222D01*
X014176Y023153D01*
G37*
G36*
X014315Y023014D02*
X013760Y022459D01*
X013691Y022528D01*
X014246Y023083D01*
X014315Y023014D01*
G37*
G36*
X014454Y022874D02*
X013899Y022319D01*
X013830Y022388D01*
X014385Y022943D01*
X014454Y022874D01*
G37*
G36*
X014593Y022735D02*
X014038Y022180D01*
X013969Y022249D01*
X014524Y022804D01*
X014593Y022735D01*
G37*
G36*
X014732Y022596D02*
X014177Y022041D01*
X014108Y022110D01*
X014663Y022665D01*
X014732Y022596D01*
G37*
G36*
X014872Y022457D02*
X014317Y021902D01*
X014248Y021971D01*
X014803Y022526D01*
X014872Y022457D01*
G37*
G36*
X010696Y018281D02*
X010141Y017726D01*
X010072Y017795D01*
X010627Y018350D01*
X010696Y018281D01*
G37*
G36*
X010556Y018420D02*
X010001Y017865D01*
X009932Y017934D01*
X010487Y018489D01*
X010556Y018420D01*
G37*
G36*
X010417Y018559D02*
X009862Y018004D01*
X009793Y018073D01*
X010348Y018628D01*
X010417Y018559D01*
G37*
G36*
X010278Y018699D02*
X009723Y018144D01*
X009654Y018213D01*
X010209Y018768D01*
X010278Y018699D01*
G37*
G36*
X010139Y018838D02*
X009584Y018283D01*
X009515Y018352D01*
X010070Y018907D01*
X010139Y018838D01*
G37*
G36*
X010000Y018977D02*
X009445Y018422D01*
X009376Y018491D01*
X009931Y019046D01*
X010000Y018977D01*
G37*
G36*
X009861Y019116D02*
X009306Y018561D01*
X009237Y018630D01*
X009792Y019185D01*
X009861Y019116D01*
G37*
G36*
X009721Y019255D02*
X009166Y018700D01*
X009097Y018769D01*
X009652Y019324D01*
X009721Y019255D01*
G37*
G36*
X009582Y019395D02*
X009027Y018840D01*
X008958Y018909D01*
X009513Y019464D01*
X009582Y019395D01*
G37*
G36*
X009443Y019534D02*
X008888Y018979D01*
X008819Y019048D01*
X009374Y019603D01*
X009443Y019534D01*
G37*
G36*
X009304Y019673D02*
X008749Y019118D01*
X008680Y019187D01*
X009235Y019742D01*
X009304Y019673D01*
G37*
G36*
X009165Y019812D02*
X008610Y019257D01*
X008541Y019326D01*
X009096Y019881D01*
X009165Y019812D01*
G37*
G36*
X009025Y019951D02*
X008470Y019396D01*
X008401Y019465D01*
X008956Y020020D01*
X009025Y019951D01*
G37*
G36*
X008886Y020091D02*
X008331Y019536D01*
X008262Y019605D01*
X008817Y020160D01*
X008886Y020091D01*
G37*
G36*
X008747Y020230D02*
X008192Y019675D01*
X008123Y019744D01*
X008678Y020299D01*
X008747Y020230D01*
G37*
G36*
X008608Y020369D02*
X008053Y019814D01*
X007984Y019883D01*
X008539Y020438D01*
X008608Y020369D01*
G37*
G36*
X008469Y020508D02*
X007914Y019953D01*
X007845Y020022D01*
X008400Y020577D01*
X008469Y020508D01*
G37*
G36*
X008329Y020647D02*
X007774Y020092D01*
X007705Y020161D01*
X008260Y020716D01*
X008329Y020647D01*
G37*
G36*
X008190Y020787D02*
X007635Y020232D01*
X007566Y020301D01*
X008121Y020856D01*
X008190Y020787D01*
G37*
G36*
X008051Y020926D02*
X007496Y020371D01*
X007427Y020440D01*
X007982Y020995D01*
X008051Y020926D01*
G37*
G36*
X007912Y021065D02*
X007357Y020510D01*
X007288Y020579D01*
X007843Y021134D01*
X007912Y021065D01*
G37*
G36*
X007773Y021204D02*
X007218Y020649D01*
X007149Y020718D01*
X007704Y021273D01*
X007773Y021204D01*
G37*
G36*
X007633Y021343D02*
X007078Y020788D01*
X007009Y020857D01*
X007564Y021412D01*
X007633Y021343D01*
G37*
G36*
X007494Y021482D02*
X006939Y020927D01*
X006870Y020996D01*
X007425Y021551D01*
X007494Y021482D01*
G37*
G36*
X007355Y021622D02*
X006800Y021067D01*
X006731Y021136D01*
X007286Y021691D01*
X007355Y021622D01*
G37*
D26*
X005623Y021289D03*
X005623Y020588D03*
D27*
X003012Y020867D03*
X001043Y020867D03*
X029471Y030383D03*
X031439Y030383D03*
D28*
X032172Y017810D03*
X032172Y016707D03*
D29*
X018507Y039191D03*
X017759Y039191D03*
X018133Y040057D03*
X006723Y027413D03*
X007097Y026547D03*
X006349Y026547D03*
D30*
X006254Y025736D03*
X006254Y024536D03*
X004054Y024536D03*
X004054Y025736D03*
D31*
X014963Y019439D03*
X015553Y019439D03*
X020023Y039329D03*
X020023Y039919D03*
D32*
X027095Y020438D03*
X027095Y019690D03*
X028119Y019690D03*
X028119Y020064D03*
X028119Y020438D03*
D33*
X027070Y019027D03*
X027070Y017768D03*
X025491Y019385D03*
X024307Y019374D03*
X024307Y020633D03*
X025491Y020645D03*
D34*
X028549Y021068D03*
X030046Y021068D03*
D35*
X027934Y021200D03*
X027233Y021200D03*
D36*
X023486Y022796D03*
X023486Y023052D03*
X023486Y023308D03*
X023486Y023564D03*
X022029Y023564D03*
X022029Y023308D03*
X022029Y023052D03*
X022029Y022796D03*
D37*
X022373Y022452D03*
X022629Y022452D03*
X022885Y022452D03*
X023141Y022452D03*
X023141Y023909D03*
X022885Y023909D03*
X022629Y023909D03*
X022373Y023909D03*
D38*
X003263Y019596D03*
X003263Y018686D03*
X003263Y017776D03*
D39*
X000822Y018686D03*
D40*
X007582Y007892D03*
X008841Y007892D03*
X020810Y019703D03*
X022070Y019703D03*
X026584Y023139D03*
X027844Y023139D03*
X029705Y018615D03*
X030965Y018615D03*
D41*
X019521Y020661D03*
X018734Y021035D03*
X018734Y020287D03*
D42*
X020075Y021398D03*
X020823Y021398D03*
X020449Y020572D03*
D43*
X007783Y025419D03*
X007310Y025419D03*
X006838Y025419D03*
D44*
X001952Y030726D03*
X001952Y031041D03*
X001952Y031356D03*
X001952Y031671D03*
X001952Y031986D03*
X001952Y032301D03*
X001086Y032301D03*
X001086Y031986D03*
X001086Y031671D03*
X001086Y031356D03*
X001086Y031041D03*
X001086Y030726D03*
X043211Y030648D03*
X043211Y030963D03*
X043211Y031277D03*
X043211Y031592D03*
X043211Y031907D03*
X043211Y032222D03*
X044078Y032222D03*
X044078Y031907D03*
X044078Y031592D03*
X044078Y031277D03*
X044078Y030963D03*
X044078Y030648D03*
D45*
X043645Y030608D03*
X043645Y032262D03*
X001519Y032340D03*
X001519Y030687D03*
D46*
X026430Y032380D03*
X026430Y034348D03*
X028418Y034348D03*
X028418Y032380D03*
X035958Y008915D03*
X037946Y008915D03*
D47*
X036553Y022920D03*
X036297Y022920D03*
X036041Y022920D03*
X035785Y022920D03*
X035529Y022920D03*
X035273Y022920D03*
X035018Y022920D03*
X034762Y022920D03*
X034506Y022920D03*
X034250Y022920D03*
X034250Y025217D03*
X034506Y025217D03*
X034762Y025217D03*
X035018Y025217D03*
X035273Y025217D03*
X035529Y025217D03*
X035785Y025217D03*
X036041Y025217D03*
X036297Y025217D03*
X036553Y025217D03*
M02*
